<?xml version="1.0" encoding="UTF-8"?>
<svg id="Layer_2" data-name="Layer 2" xmlns="http://www.w3.org/2000/svg" viewBox="0 0 649.13 1114.05">
  <defs>
    <style>
      .cls-1, .cls-2 {
        fill: #1c3664;
        stroke: #1c3664;
        stroke-miterlimit: 10;
      }

      .cls-2 {
        stroke-width: 2px;
      }
    </style>
  </defs>
  <g id="Layer_1-2" data-name="Layer 1">
    <g>
      <path class="cls-1" d="M441.26,116.43c.2.13,1.04,3.86.93,4.64h-22.24v-4.64c3.05,0,20.42-.57,21.32,0Z"/>
      <rect class="cls-1" x="266.08" y="18.27" width="5.79" height="53.38" transform="translate(26.05 168.87) rotate(-36.52)"/>
      <rect class="cls-1" x="351.46" y="42.07" width="53.36" height="5.76" transform="translate(116.84 321.97) rotate(-53.45)"/>
      <rect class="cls-1" x="384.12" y="87.07" width="53.34" height="6.02" transform="translate(-7.8 130.65) rotate(-17.9)"/>
      <path class="cls-1" d="M436.63,151.67l-.98,5.51c-16.32-3.75-32.2-10.23-48.42-14.76-1.71-2.1-2.44-6.07,1.4-5.41l48,14.66Z"/>
      <path class="cls-1" d="M261.45,137.77l-1.59,4.65c-5.62.83-47.04,16.38-48.55,14.27-.99-1.38-1.37-4.34.72-4.86,14.3-3.5,29.34-10.81,43.48-14.03,2.27-.52,3.6-.99,5.94-.04Z"/>
      <path class="cls-1" d="M325.4,2.06v49.74c0,.86-.7,1.56-1.56,1.56h-.58c-.99,0-1.57-1.54-1.57-2.4l-.18-48.23c0-1.45.88-2.23,1.75-2.23h1.55c.86,0,1.56.7,1.56,1.56v49.74c-.17.85-.7,1.56-1.56,1.56h-1.55c-.86,0,.58-52.86.58-52.86.86,0,1.56.7,1.56,1.56Z"/>
      <path class="cls-1" d="M338.38,17.19c-.87,10.89.97,24.97-8.34,32.46l3.65-31.86,4.68-.6Z"/>
      <path class="cls-1" d="M313.35,17.19l3.7,32.46c-9.73-7.35-6.21-20.39-9.15-31,.45-1.9,3.84-1.52,5.45-1.46Z"/>
      <path class="cls-1" d="M281.76,26.53c2.45,9.67,12.71,18.55,8.41,28.69-1.25.94-13.91-25.44-13.89-27.81l5.48-.88Z"/>
      <path class="cls-1" d="M272.56,65.41c-3.14-.22-6.22-.99-8.81-2.77-1.23-.84-12.61-12.18-13-13.01-1.02-2.22.73-4.65,2.81-4.65,1.22,0,16.15,14.62,17.65,16.68.93,1.27,1.75,1.87,1.34,3.75Z"/>
      <path class="cls-1" d="M374.53,65.41c-.2-1.91,1.24-3.27,2.3-4.65,1.59-2.07,15.51-15.77,16.7-15.78,2.08,0,3.84,2.43,2.81,4.65-.39.83-11.77,12.17-13,13.01-2.58,1.77-5.68,2.56-8.81,2.77Z"/>
      <path class="cls-1" d="M370.8,28.35c-4.19,9.02-8,18.96-13.88,26.86-4.26-10.55,6.28-18.56,8.37-28.71l5.5,1.85Z"/>
      <path class="cls-1" d="M415.27,75.58l-24.98,12.1c-.54-.64,2.8-6.95,3.74-7.84,1.09-1.03,16.05-9.03,17.55-9.42,2.92-.75,3.78,2.79,3.69,5.16Z"/>
      <path class="cls-1" d="M274.42,172.08l-20.85,21.3c-1.62-1.87-4.18-2.47-2.37-5.1,3.26-4.74,10.72-8.9,13.67-14.4l9.56-1.79Z"/>
      <path class="cls-1" d="M357.74,5.24c.6.35.57,2.53.4,3.4-.47,2.4-6.06,22.46-7.24,22.45-2.16-2.7-4.52-.36-3.97-3.91.34-2.21,5.52-20.58,6.18-21.48s3.91-.87,4.64-.45Z"/>
      <path class="cls-1" d="M255.88,86.75l-24.06-11.16c-.09-2.37.77-5.91,3.69-5.16,1.25.32,16.65,8.59,17.54,9.42,1.07,1,3.67,5.99,2.83,6.9Z"/>
      <path class="cls-1" d="M300.33,29.2l-5.07.99c-1.2-7.14-5.62-15.49-6.34-22.49-.23-2.29,1.7-3.53,3.61-3.26,2.11.3,6.74,21.27,7.8,24.76Z"/>
      <path class="cls-1" d="M283.21,170.46c2.11-.16,3.65,2.13,2.89,4.43-.44,1.34-12.83,18.31-13.98,18.33-.26,0-4.16-2.81-4.16-3.07,2.77-2.21,13.26-19.55,15.26-19.7Z"/>
      <path class="cls-1" d="M255.89,150.75c-1.2,1.98-1.67,6.08-3.44,7.46-1.52,1.18-14.21,7.46-16.51,8.33-3.83,1.46-4.78-3.63-4.08-4.59.78-1.08,21.01-9.61,24.03-11.2Z"/>
      <path class="cls-1" d="M423.64,99.73l1.01,4.98c-8.58,1.9-20.35,6.97-27.88.12l26.86-5.1Z"/>
      <path class="cls-1" d="M415.24,161.95c.7.98-1.18,5.29-2.23,5.37-3.57-3.15-16.26-6.72-18.79-9.39-1.17-1.24-1.5-5.49-3.01-7.18,3.02,1.59,23.26,10.12,24.03,11.2Z"/>
      <path class="cls-1" d="M250.32,104.38c-1.08,1.88-5.63,4.26-7.68,4.34-1.82.07-19.46-2.68-20-3.54-.67-1.07-.12-5.19,1.28-5.45,1-.19,2.63,1.44,3.9,1.65,7.45,1.23,15.05,1.8,22.5,3Z"/>
      <path class="cls-1" d="M363.88,170.46c1.19.09,13.56,17.19,13.29,18.63-.3,1.61-2.79,3.12-4.51,2.02-.81-.52-10.81-14.38-11.34-15.59-.97-2.22-.37-5.29,2.56-5.07Z"/>
      <path class="cls-1" d="M246.61,64.49l-19.43-13.02,2.75-5.09,17.71,13c1.41,1.39-1.52,2.94-1.03,5.11Z"/>
      <path class="cls-1" d="M417.96,47c.21.12,2.27,4.04,1.97,4.48l-19.44,13.01c.57-1.55-1.63-3.6-1.62-4.2.01-1.18,17.23-14.37,19.1-13.29Z"/>
      <path class="cls-1" d="M398.62,176.73c2.68.63,2.76-3.84,3.24-3.73,1.07.25,17.1,12.05,17.68,12.98,1.01,1.61-1.04,5.6-4.2,4.17-4.36-1.97-12.45-10.22-16.71-13.43Z"/>
      <path class="cls-1" d="M248.47,176.73c-4.4,3.36-12.12,11.24-16.71,13.41-3.22,1.52-4.97-2.94-4.21-4.17,1.7-2.72,15.02-9.93,18.12-12.98-.18,2.11.52,3.69,2.79,3.74Z"/>
      <path class="cls-1" d="M247.54,133.12c-4.8-.49-20.14,4.6-23.52,3.65-1.63-.46-1.91-3.71-1.56-4.95.43-1.53,17.46-2.72,20.01-2.42,2.16.26,5.28.93,5.07,3.72Z"/>
      <path class="cls-1" d="M424.47,131.37c.32.4.32,3.84-.01,4.41-1.02,1.72-22.87-1.76-25.83-4.05,2.36-4,25.01-1.38,25.84-.36Z"/>
      <path class="cls-1" d="M387.82,187.51c-4.72-4.53-9.44-10.75-14.23-15.43,2.48.74,5.75.55,7.93,1.79,1.39.79,15.37,15.07,15.17,16.16-.93,5.23-7.16-.87-8.88-2.52Z"/>
      <rect class="cls-1" x="204.91" y="116.43" width="22.24" height="4.64"/>
      <rect class="cls-1" x="321.69" y="185.06" width="3.71" height="3.71" rx="1.58" ry="1.58"/>
      <path class="cls-1" d="M317.99,136.83c-.92,0-4.48-.17-4.64,0-.42.43.35,9.98-3.25,11.12-3.13.36.37-3.6-.45-4.62-2.03-2.54-2.08,5.35-4.63,3.7,1.7-6.51.61-3.71-3.62-6.12-5.51-3.15-9.91-9.76-10.28-16.13,4.46,2.39,10.97,12.63,15.3,13.9,2.06.6,1.73-2.7,1.21-3.55-.31-.51-8.76-4.54-10.5-5.72-1.7-1.16-3.03-3.66-4.6-4.67-1.71-1.1-3.97-.55-5.1-2.37-1.23-3.81,4.37-5.62,4.6-5.95.44-.63-2.47-1.6-1.44-3.66,3.61-7.25,14.95-8.99,13.49-17.65l3.7,3.7v-4.63s2.32,3.7,2.32,3.7l1.4-4.64,2.77,2.78v-4.63s3.71,3.71,3.71,3.71v-3.71s3.7,2.77,3.7,2.77c-1.53-6.19,3.99-2.87,7.18-4.32,1.72-.78.52-2.68,2.55-2.18,1.02.25-.64,2.9,3.24.94l.92,4.63,1.86-4.63-.92,7.41c3.58.97,1.09-4.83,1.86-5.56,5.68-1.25.56,6.3,1.86,10.2,2.43-.96-.16-8.88,3.69-8.34l-.46,9.26c2.51-1.01,2.03-8.27,3.71-8.32,3.72-.12-2.41,9.55-.45,11.11,3.14-1.1.38-6.74,4.62-6.49l-1.84,7.41c2.25-.25.55-4.66,3.69-3.7.48,1.75-.92,3.73-.85,5.16.07,1.43,2.56,3.14,1.78,4.11-.26.32-2.24-.72-1.84.92,9.93-.13-2.74,5.1-1.86,10.21-1.18-.21-1.29.5-1.85.93-1.84,1.4-1.52,2.44-1.85,2.78,4.7.74,3.58,7.8,3.7,11.12-2.66.45-1.53-.58-1.97-2.14-.81-2.86-1.27-6.04-1.73-8.98-.24.25-2.24.24-2.78,1.4-.35.75,1.18.2,1.5.75,1.81,3.05,1.19,7.42,1.27,10.83-2.29.16-1.6.24-1.83-1.39-.35-2.47.21-5.66-1.42-7.88-1.49-2.04-1.95-.13-2.31,0-.76.27-1.18.16-1.85.93-2.35,2.71,4.22,10.27-.92,12.98.15-1.54-1.49-10.71-1.87-11.13-.24-.27-1.71,1.39-2.77.94,1.64,3.26,5.72,13.39,0,12.05l-1.39-11.13c-1.9,1.24-1.06,2.15-.99,3.68.09,2.05,2.36,9.92-1.33,9.29l-.94-11.13c-.78.14-2.44-.22-2.78.02-.4.28,1.77,7.58,1.76,9.64,0,1.2-.45,5.15-2.69,4.26v-12.98c-1.57-.02-2.02-.54-1.79,1.31.26,2.12,2.77,9.75-1.44,9.83l-.47-11.14c-.61-.05-1.24.04-1.85,0s-1.24,0-1.85,0ZM325.4,92.32c-1.3-.67-2.47.59-1.84.91,1.3.67,2.47-.59,1.84-.91ZM322.61,104.37c.67-1.3-.59-2.47-.91-1.85-.67,1.3.59,2.47.91,1.85ZM318.92,107.15c-.52-.62,1.05-2.84.47-3.69-2.01,3.72-6.17,9.06-6.49,1.84l-1.69,4.4-1.55,1.15,13.89-2.78c-.62-.52-1.75-2.64-1.87-2.76-.91-.93-1.06,3.87-2.76,1.84ZM316.12,107.15c.46-3.86-1.37-3.86-.91,0h.91ZM337.46,105.31c-.96-.68-2.55,1.31-3.7,1.51-1.63.28-5.39-2.23-4.64,1.26,1.81-.91,9.83,1.29,10.19.93.09-.09-.23-1.83.91-2.33l-3.21.49c-1.05-.13.81-1.61.46-1.86ZM351.35,110.86c.07-.07.35-1.96-.45-1.85-2.53,1.45-.62,2.9.45,1.85ZM305.01,112.72c-1.48-.21-.44-3.01-1.38-2.78l-8.81,6.48c4.12-.09,6.93-1.55,10.2-3.7.9.13,2.22-.58,2.76-1.4-1.03-.81-2.23,1.05-2.76,1.4ZM334.46,113.84c-.29-.5-5.36-3.72-6.28-2.97,4,3.71,4.83,7.59,3.18,12.94-.69,2.23-2.52,2.15-3.17,3.74,6.43,1.68,8.09-10.59,6.28-13.71ZM348.57,114.58c-4.49-.05-7.52-4.32-12.05-3.71,3.44,4.03,1.57,9.2.93,13.9.71.77,12.83-6.67,11.12-10.19ZM309.64,113.65l-17.6,6.02c1.95,2.21,4.89,1.03,7.44,1.83,1.99.63,10.5,6.61,11.09,6.05-3.07-4.36-1.77-9.08-.93-13.9ZM321.7,118.28c1.67.9,5.52-2.56,5.54-3.24.08-3.16-6.34.58-5.54,3.24ZM317.99,127.55c-3.43-3.81-3.82-8.09-4.17-12.97-3.73,4.42-2.4,12.81,4.17,12.97ZM294.81,122.93c10.33,14.73,31.63,16.3,44.47,4.15-10.33,3.5-16.17,7.13-27.37,3.3-5.82-1.99-10.67-7.5-17.1-7.46ZM340.69,125.7v.93c.6-.31.6-.62,0-.93Z"/>
      <path class="cls-1" d="M341.16,129.41c2.7,2.19,3.97,9.66,1.38,12.05-2.27.44-1.29-1.81-1.37-3.24-.14-2.65.75-6-1.86-7.88.67-.77,1.09-.66,1.85-.93Z"/>
      <path class="cls-1" d="M319.84,136.83c.58,3.68,2.06,7.79-.47,11.13-2.13.68-1.32-2.04-1.38-3.24-.14-2.62.09-5.28,0-7.89.61,0,1.24-.04,1.85,0Z"/>
      <path class="cls-1" d="M316.13,147.97h-2.77c1.1-1.74.39-10.21,2.31-10.19,2.78.02-.26,8.58.46,10.19Z"/>
      <path class="cls-1" d="M350.43,121.99c1.84.33,4.38,5.39,3.7,7.41l-5.56-6.49c.56-.42.68-1.14,1.85-.93Z"/>
      <path class="cls-1" d="M325.4,92.32c.63.32-.54,1.57-1.84.91-.63-.32.54-1.57,1.84-.91Z"/>
      <path class="cls-1" d="M340.69,125.7c.6.31.6.62,0,.93v-.93Z"/>
      <path class="cls-1" d="M642.39,573.64c-1.65-6.63-.58-12.66-.93-19.48,2.12,5.94.37,13.22.93,19.48Z"/>
      <path class="cls-1" d="M473.7,367.76c-.74-.22-.62-.29-.93-.93.38.24.64.6.93.93Z"/>
      <path class="cls-1" d="M399.55,354.77v-18.55c.88,7.84.77,10.84,0,18.55Z"/>
      <path class="cls-1" d="M436.62,335.29c.11.09.6,2.28.47,2.77l-3.25-2.3c.03-.81,2.67-.56,2.78-.46Z"/>
      <path class="cls-1" d="M391.2,301.92c.63.32-.54,1.57-1.84.91-.63-.32.54-1.57,1.84-.91Z"/>
      <path class="cls-1" d="M592.33,684.94c3.48,4.12-18.21,30.69-21.34,35.68-7.42,11.85-15.15,29.54-11.14,43.66.45,1.6,4.22,7.4,3.75,7.83-2.11,1.96-4.25-3.19-5.55-3.7-.21,2.21,2.98,8.28,2.68,9.64-.2.93-1.98,2-2.68,1.48-1.41-1.05-1.11-8.99-3.71-10.19.13,2.59-.26,5.27,0,7.86.66,6.46,4.39,9.84-3.71,13.46-.24-1.41-.8-2.7-.94-4.16-.91-9.76,4.26-35.62,7.65-45.22,6.64-18.8,22.09-36.25,32.17-54.06.37-.65,1.67-3.64,2.81-2.28ZM553.4,786.94c.67-1.3-.59-2.47-.91-1.85-.67,1.3.59,2.47.91,1.85Z"/>
      <path class="cls-1" d="M541.36,798.08v19.94c0,.43,2.72,6.96,3.29,7.84,1.31,2.03,5.88,4.77,6,5.14,1.12,3.4-2.44,2.53-4.12,1.31-1.3-.95-.96-2.76-2.39-2.7,0,3.08,4.18,5.28,4.64,7.87.69,3.82-4.8-.43-5.12-2.29-.36,1.48,4.36,5.74.92,6.47-2.23.47-4.72-5.6-4.18-7.75.18-.7,1.92-.54,1.91-1.07-.02-1.53-3.04-4.38-2.88-6.44.04-.51,1.95-.52,1.97-.99.09-1.91-3.87-11.62-3.84-16.67.02-2.37.63-11.28,3.79-10.67Z"/>
      <path class="cls-1" d="M438.48,429.89c-1.43-1.26,4.31-14.23,4.93-16.69,5.55-21.91.71-30.75-3.83-50.73-.31-1.39-.76-2.48,1.2-2.12,8.78,17.74,10.21,40.73,3.91,59.54-.3.89-3.96,11.99-6.21,10Z"/>
      <path class="cls-1" d="M553.4,786.94c-.32.63-1.57-.54-.91-1.85.32-.63,1.57.54.91,1.85Z"/>
      <path class="cls-1" d="M320.77,878.76v-8.35c-8.14-.19-16.32,1.43-24.29,3.06-3.8.78-12.46,4.85-15.56,2.97-.72-.44-4.79-7.12-5.45-8.46-8.15-16.63-7.85-37.29-4.32-55.1.66-3.33,5.13-21.53,7.53-22.07.86-.19,3.02.85,4.52.83,12.29-.16,25.28-8.25,37.48-10.34l.1-5.48c-7.79-.56-15.4,1.12-22.7,3.73-2.17-3.41,3.94-7.25,6.64-9.13,3.05-2.12,15.36-7.05,15.87-7.77,1.01-1.42-.52-5.12,2.91-5.94,9.24-2.2,1.89,20.51,5.59,23.31l42.44,9.55,11.34-1.68c-9.93,28.4-7.27,59.22-.93,88.09l-53.75-6.49c.49,4.14-2.04,8.69,3.19,9.32,9.64,1.17,20.1-.68,29.67-1.01,5.68-.2,18.61,1.16,23.02-.15,4.54-1.35,11.44-14.9,14.56-18.82,1.22-1.53,11.66-11.59,12.51-11.59h54.22v32.46c-5.24-1.9-20.26-.83-23.57,3.78-1.82,2.54-3.92,12.13-5.4,15.93-4.48,11.49-9.47,22.79-14.23,34.14l-49-.04c-2.85-.02-4.7,6.89-7.31,6.42-2.39-.43-2.47-3.66-1.51-5.5-2.56.39-6.3-.58-8.61-.02-1.33.32-2.19,5.63-4.81,5.63-2.94,0-3.57-3.38-2.34-5.61-2.56.39-6.3-.58-8.61-.02-1.34.32-2.16,5.6-4.81,5.62-3.03.03-2.63-3.59-1.41-5.59-2.97.33-7.37-.92-9.8.85-1.44,1.05-2.02,4.74-4.56,4.74-3.03,0-2.61-3.59-1.4-5.59-2.64.3-6.18-.58-8.63.17-2.33.71-3.33,5.75-5.63,5.34-2.14-.38-2.93-3.74-1.5-5.51-2.56.34-6.35-.63-8.66.14-1.97.65-1.7,3.22-2.7,4.25-2.79,2.87-6.93-.91-4.4-4.38-2.82.37-7.65-1-9.75.9-1.19,1.08-1.06,4.67-3.68,4.69-3.49.02-1.91-5.15-2.33-5.6-.29-.32-7.83-.24-8.65-.04-.5.12-5.04,10.28-6.96,4.05-1.13-3.66,1.6-5.19-6.22-4.06-3.5.51-7.89,9.4-9.54,4.06-1.17-3.79,1.68-5.05-6.23-4.07-4.07.51-4.69,6.01-7.24,5.56-2.28-.4-2.88-3.85-1.51-5.5-24.7-.04-18.58-32.89-12.22-47.94,3.98-9.42,13.22-14.89,15.97-24.83,1.05-3.79,1.39-9.24-3.25-9.83-6.34-.8-19.18,2.51-23.67.5-3.58-1.6-5.65-11.37-4.5-14.68,1.1-3.18,18.35-6.93,22.04-9.48,1.97-1.36,2.86-4.37,5.14-5.98,8.55-6.07,17.64-7.24,26.66-10.43,1.53-.54,4.82-5.06,6.1-1.01,1.67,5.27-2.91,11.26-2.44,13.63.31,1.54,5.24,5.93,6.36,8.42,6.07,13.52-2.29,34.03,2.86,42.58.42.7,2.8,3.38,3.11,3.38h54.22ZM320.76,765.62c-.57-.64-14.27,6.06-14.82,8.33l14.83-.91v-7.42ZM304.55,773.96v.93c.6-.31.6-.62,0-.93ZM366.18,790.67l-37.99-7.43v12.06s25.37-1.98,25.37-1.98l12.62-2.65ZM320.76,784.17l-27.8,9.26,27.81,1.87v-11.13ZM377.3,871.33c-6.38-25.54-6.6-53.18-.45-78.8-31.45,8.38-64.88,8.26-96.86,2.76-8.24,25.68-11.96,53.72,2.81,77.9,30.98-10.72,62.86-7.79,94.5-1.85ZM374.52,929.77h45.42l19.04-49.12c5.73-5.28,14.29-5.96,21.74-5.6v-24.11h-47.73c-.79,0-10.43,9.19-11.58,10.67-4.49,5.76-10.26,19.19-18.29,20.65l-126.81.27c-4.03-.54-7.85-4.9-7.75-8.89.04-1.65,1.69-2.85,1.57-4.45-.13-1.72-2.68-5.17-2.52-7.65.14-2.07,2.77-2.7,2.6-4.41-.13-1.38-2.34-2.91-2.66-4.86-.53-3.27,1.55-5.15,1.5-6.41s-2.52-3.72-2.46-7.39c.06-3.52,2.54-6.79,2.8-9.41.31-3.06-1.88-4.7-1.82-6.4.06-1.58,2.77-3.63,1.82-6.02-.87-.88-9.48,1.61-11.12,2.31-1.87.8-11.27,5.9-12.52,6.95-2.18,1.82-2.72,4.83-3.87,5.64-2.76,1.95-20.77,6.5-21.56,7.4-2.24,2.57,3.29,7.87,6.43,7.38l-3.7,2.76c6.58.34,20.52-2.74,26.28-.79,1.43.48,3.11,6.16,3.3,7.84,1.4,12.51-11.27,20.53-16.02,30.18-5.51,11.2-12.97,43.28,6.39,44.43,6.18.36,4.74-2.75,7.86-6.06,1.49-1.58,3.38-2.21,5.04-4.23,1.33-1.61,11.91-18.27,12.21-19.38.43-1.65-4.35-2.94-1.41-6.92,2.62-3.55,11.04-1.58,9.07,4.41-.61,1.86-4.68,2.2-6.79,4.37-1.72,1.77-11.78,17.82-12.96,20.42-.98,2.18-.31,5.06-2.37,6.9,2.11.58,7.59,1.04,9.28,0,1.07-.66,1.59-3.44,2.74-4.67,1.6-1.7,3.64-2.49,5.07-4.2,1.54-1.85,12.8-19.07,13.13-20.31.38-1.43-1.9-2.13-2.3-3.48-2.24-7.69,14.6-6.21,9.21,1.9-1.24,1.87-4.47.79-5.71,2.15-3.78,4.11-12.36,20.15-14.08,25.57-.54,1.71-3.46,3.08-.23,3.5,9.48,1.24,6.64-.68,11.11-5.6,1.18-1.3,2.88-1.85,4.07-3.35,5.14-6.48,8.62-14.84,14.04-21.2-10.18-8.26,9.69-11.45,7.29-2.97-.83,2.94-4.89,2.61-6.42,4.09-4,3.85-13.41,22.19-15.69,27.65-.99,2.37,7.05,1.54,8.34.92,1.63-.79,2.83-4.54,4.22-5.98.94-.98,2.62-1.05,4.02-2.47.96-.97,12.28-18.78,12.66-19.9.65-1.96-1.16-2.43-1.45-4.18-1.24-7.34,11.93-6.64,10.09-.12-.83,2.94-4.89,2.61-6.42,4.09-4,3.85-13.92,22.09-15.67,27.67-.72,2.28,6.44,1.56,7.68,1.18,2.23-.68,3.34-4.66,4.87-6.29.84-.9,2.47-.69,3.23-1.61,1.67-2.03,12.88-19.09,13.44-20.73.79-2.3-6.41-10.28,4.6-9.31,4.48.4,5.21,5.12,1.73,7.41-1.31.86-3.05.72-4.49,2-.97.87-13.79,20.63-14.13,21.89-.19.7.47,1.93.23,3.13s-1.91,2.1-1.43,3.68c9.84,1.82,7.8-2.04,12.02-6.07,1.23-1.18,2.75-1.02,3.78-2,.92-.88,13.16-20.33,13.49-21.56.44-1.64-4.35-2.93-1.42-6.92,2.82-3.84,12.7-1.51,8.74,5.04-.83,1.37-3.97,1.4-5.53,2.8-1.34,1.2-13.44,20.04-14.15,22.01-.65,1.79-.39,4.68-1.18,6.69,9.49,1.48,7.69-1.29,12.05-6.02,1.18-1.29,2.9-1.76,4.12-3.3,1.68-2.12,12.76-18.92,13.13-20.31.38-1.43-1.9-2.13-2.3-3.49-2.02-6.91,12.58-6.99,9.95.97-.66,2.01-4.53,2.12-6.39,3.84s-12.9,19.73-13.78,22.38c-.52,1.55-.61,3.4-1.02,5l7.7-.17c2.53-3.93,8.14-6.99,10.49-10.36.73-1.05.68-2.6,1.41-3.68,3.38-4.99,6.4-10.21,10.05-15.01-8.77-5.53,4.29-11.54,6.99-6.02,3.1,6.33-4.43,5.7-5.85,6.7-1.09.76-13.17,20.74-13.84,22.78-.59,1.8-.69,3.91-1.19,5.75,9.69,1.63,7.85-1.55,12-5.83.93-.96,2.46-.68,3.65-2.13,5.1-6.22,8.42-15.15,14-21.25-10.18-8.26,9.69-11.45,7.29-2.97-.83,2.94-4.89,2.61-6.42,4.09-1.51,1.46-11.25,17.12-12.5,19.7-1.41,2.91-.89,5.87-3.19,7.94,2.16.56,6.68.97,8.65.31,1.77-.6,2.54-4.05,3.91-5.36,1.07-1.02,2.62-1.04,4.02-2.47.89-.91,12.29-18.77,12.67-19.89.66-1.93-1.17-2.45-1.46-4.19-1.25-7.41,11.7-6.51,10.1-.11-.65,2.6-5.14,2.84-7.19,4.93-1.19,1.22-11.5,17.26-12.36,19.17-1.13,2.5-.61,5.65-2.58,8.08Z"/>
      <path class="cls-1" d="M232.55,826.99c.31.19.42,1.61,1.12,2.08,1.85,1.25,5.55.34,6.45,2.38-2.88.05-6.03,1.62-8.8,1.68-11.05.21-2.05-8.15,1.22-6.14Z"/>
      <path class="cls-1" d="M472.77,366.83c.31.63.19.71.93.93,21.45,24.76,36.79,64.88,17.92,94.97-1.06,1.68-1.85,1.6-4.01,1.47-.8-1.36,6.07-12.08,7.72-18.69,6.14-24.62-4.48-48.08-18.09-68.77-1.38-2.1-7.88-8.77-8.16-9.46-1.01-2.46,2.8-1.02,3.7-.45Z"/>
      <path class="cls-2" d="M642.39,573.64c-1.65-6.63-.58-12.66-.93-19.48-.78-15.33-2.14-30.57-4.86-45.69-.43-2.42-2.62-6.44-2.5-8.63.15-2.53,9.1-5.88,9.24-14.83.11-6.82-7.11-11.95-5.6-18.95-1.74-1.86-7.43,6.86-12.71,2.5-16.94-40.87-44.22-79.51-83.66-100.87,1.92-7.28,1.26-14.46-1.88-21.27-1.41-.06-1.43,2.32-1.98,2.65-2.19,1.29-14.66-5.88-16.08-8.22-1.02-1.68-.23-5.69-.9-8.37-1.28-5.11-6.66-10.11-8.86-14.8-4,1.48-6.81,4.03-11.23,4.95-10.66,2.22-18.74-4.59-28.14-8.67-2.78-1.21-19.21-6.66-19.81-7.54-.88-1.3.23-11.94-5.26-13.77-1.72-.36-1.84,2-2.96,2.79-8.64,6.01-19.12-2.84-27.14-6.04-23.11-9.22-40.29-10.09-63.24-15.55-1.26-.3-8.72-2.22-9.04-2.56-1.55-1.63,1.82-2.17,2.32-2.73.91-1,1.98-3.49,2.87-3.7.95-.23,7.99,4.55,10.32,5.3,6.13,1.97,11.82,2.13,17-2.06,1.09-.88,1.7-3.27,2.32-3.36,1.51-.24,7.04,4.23,9.68,5.15,6.12,2.13,16.67,2.92,19.67-4.39,3.84-9.35-10.59-14.29-16.9-17.85,17.7-3.34,24.18-27.84,13.36-41.19-8.49-10.47-21.57-11.95-34.25-11.24-3.19.18-8.66,2.13-11.08,1.89-.41-.04-6.97-3.87-7.03-4.28-.7-4.35,6.59-20.58,6.57-26.33l38.92,8.35-15.76-38.01c3.84-2.82,35.22-15.22,35.23-17.18,0-1.8-1.82-2.59-3.07-3.42-9.26-6.07-23.14-10.12-33.08-15.6l16.68-38.01-39.81,8.32-10.7-39.84c-4.16,2.75-22.27,29.2-24.13,29.66-1.27.31-2.43-1.56-3.19-2.35-6.98-7.18-12.99-17.96-19.89-25.54-.57-.82-2.89-1.22-3.3-.87-1.52,1.31-7.47,34.25-9.28,38.96l-39.84-8.35,15.83,37.43c-3.76,3.37-34.91,15.82-35.31,17.75-.21,1.05-.11,2.21.99,2.73l34.25,16.29-16.68,38.01,39.24-7.46c1.28.32,5.24,18.58,5.25,21.38-3.36-.12-6.63.77-9.77,1.82-3.3,1.11-11.44,6.09-13.06,6.25-3.9.38-10.45-1.67-14.66-1.61-14.05.18-27.06,8.13-32.84,21.01-10.99,24.49,12.6,34.26,33.3,29.61,5.97-1.34,17.04-8.55,19.96-8.85,2.82-.29,9.26,2.35,13.02,2.66,6,.49,14.78-.56,20.55-2.38,2.04-.64,7.24-3.9,7.92-3.84.71.07,7.78,3.97,10.09,4.74,9.18,3.06,14.3,4.11,23.93,2.11,2.19-.46,4.65-2.63,6.68-2.2,1.56.33,9.05,5.3,12.11,6.51,3.62,1.43,7.98,1.92,11.53,3.31.86.34,1.38-.08,1.15,1.14-1.15.14-2.61.9-3.33,1.77-1.58,1.91-.62,5.27-2.67,4.72-1.49-.4-3.71-2.95-5.4-3.87-9.4-5.16-19.12-8.43-24.27,3.88-8.65-6.8-24.66-15.02-29.21,0-.82.74-4.6-2.9-5.99-3.73-8.92-5.33-19.91-8.56-24.13,3.74-8.98-6.29-24.67-15.49-29.66,0-6.96-4.6-21.12-13.25-27.74-4.59-11.1,14.54,24.57,29.85,31.45,12.94,7.86,8.46,22.04,11.28,29.79,1.01l10.52,6.39c-3.97.3-7.19,2.47-11.07,3.31-18.25,3.96-33.97,5.06-52.18,11.78-8.91,3.28-22.71,12.68-31.52,10.64-2.77-.64-4.33-4.66-5.74-4.36-5.84,2.13-4.32,12.25-5.27,13.76-.6.96-18.08,6.74-21.16,8.04-8.73,3.66-17.51,10.35-27.16,8.56-4.06-.75-6.92-4.35-10.84-5.33-2.29,4.58-6.14,7.92-7.89,12.99-1.09,3.16-1.18,9.02-1.87,10.18-1.23,2.06-12.49,8.41-14.85,8.33-1.46-.05-2.56-1.81-2.77-1.81-1.8-.02-4.16,9.62-4.15,11.57,0,1.79,2.09,8.39,1.82,8.75-.14.19-3.23.99-4.34,1.73-32.85,21.67-54.73,48.4-72.3,83.46-1.48,2.95-5,13.46-6.08,14.78-.67.82-4.47,2.16-5.7,2.1-3.7-.19-3.76-3.24-5.15-4.19-3.34-2.28-2.64,4.93-3.02,6.29-.48,1.69-2.8,4.31-3.66,6.54-3.6,9.4-.28,15.09,7.44,20.66-4.73,18.08-6.53,36.5-7.27,55.1-.27,6.74.93,14.06-.93,20.4-.87,2.96-1.69,4.98-4.63,6.49v.93c2.51.31,5.3,2.03,6.25,4.41,11.67,47.33,25.95,99.53,53.62,140.18,5.73,8.41,20.91,21.72,15.39,32.26-2.59,4.94-6.96,7.21-11.98,4.19-1.47-.88-4.12-5.65-5.81-3.92-.34.35-1,8.4-.94,9.7.3,7.16,3.4,14.34,8.84,19.03,2.23,1.93,9.87,5.08,10.19,5.57.94,1.4,1,7.15,2.34,9.26,4.9-1.86,9.79-1.4,14.78-2.75-.26,2.22.88,6.38-.91,7.9-2.94,2.48-5.04-.46-6.91-.54-.42-.02-1.34,3.06-3.53,4-2.29.98-6.93.44-7.19.69-1.34,1.3.62,17.66,5.56,18.08-8.07,4.09-8.58,17.3-19.45,10.67,1.87,3.58,1.06,10.04,2.33,12.97,1.9,4.42,7.62,2.01,10.92,2.98,1.4.42,2.8,2.75,4.63,3.72,8.32,4.42,16.3,2,19.68-6.7,1.04-2.67-.86-4.38,3.22-3.7.03,4.5-1.01,9.21,3.37,11.94,1.42.89,5.27,1.55,5.72,2.17.72,1-.35,4,2.03,4.44-1.53-6.11,4.69-6.17,6.57-10.6,1.69-3.97-.86-9.42,3.64-9.81v14.37c0,.52-2.68,6.15-3.31,6.89-5.47,6.35-15.05,3.15-21.71,1.01,6.85,7.09,1.07,18.66,12.15,23.54,5.83,2.57,10.97-.05,12.88.56,1.05.34.78.43.95,1.36.49,2.67.27,10.99.04,14.05-.13,1.7-.95,2.76-.99,3.14-.57,4.64-2.67,6.94,4.15,6.52,7.06-.43,12.81-6.36,14.4-13.01,4.21,3.59,7.17,6.5,13.21,5.35,2.11-.4,4.29-2.41,6.78-2.51,3.46-.15,6.16,3.34,5.87-4.13-.15-3.77-3.34-8.14-5.92-10.81-.72-.74-2.14-.68-2.34-.87.86.64,6.91,11.78,5.55,13.91-3.71-2.41-6.37,1.04-9.95,1.64-7.33,1.23-9.02-2.73-13.68-7.18-2.76,7.78-5.7,14.87-15.29,14.82v-25.04c-13.87,3.61-22.92-1.58-21.32-16.7,6.74,1.36,15.24,0,18.93-6.56.41-.72,2.38-6.52,2.38-6.89v-17.16c-1.67.25-7.26,2.66-7.89,3.7-1.9,3.12,1.98,15.96-9.57,12.37-8.54-2.65,1.8-11.48-9.99-14.12-2.04-.46-1.25,4.15-1.91,6.24-2.35,7.53-8.98,9.28-15.79,5.92-2.66-1.32-4.58-5.49-5.46-5.7-.62-.15-7.7,3.73-9.51.73-.24-.39-1.31-8.77-1.04-9.14.08-.12,1.58.7,2.78.53,6.33-.9,5.54-4.24,8.77-7.97,1.92-2.22,10.21-6.29,7.34-8.4-3.56-2.61-4.99-1.7-5.84-7.89-1.08-7.85.12-4.81,4.3-6.66,1.63-.72,3.25-2.37,4.65-2.77,1.6-.46,9.5-.47,9.5-3.48v-14.37c-4.06,6.78-9.9,4-16.68,5.57,2-10.59-4.5-7.57-10.66-12.06-7.13-5.2-9.63-14.71-8.8-23.18,11.37,8.04,21.87-1.59,19.24-14.17-1.42-6.81-14.21-20.8-18.71-27.65-21.87-33.32-36.1-77.44-46.43-115.84-1.6-5.95-2.53-15.13-4.6-20.43-.74-1.88-2.82-3.16-3.13-4.34-.44-1.68,1.54-4.83,1.72-7.22,1.17-15.79.82-31.4,2.91-47.17,7.65-57.88,35.33-114.1,82.99-148.81,2.57-1.87,13.47-7.85,14.29-8.93,1.79-2.38-.94-7.16-1.01-10.25-.02-.76.75-6.63.99-6.88.38-.4,8.58-1.67,10.77-2.67,1.5-.69,8.91-5.98,9.62-7.07,1.4-2.14.8-7.32,2-10.98,1.21-3.68,4-6.55,6.27-9.57,4.59,1.01,8.63,3.93,13.59,4.18,8.3.42,13.93-4.57,21.01-7.51,8.71-3.62,17.54-7.08,26.45-10.17-.07-4.43.12-7.88,2-11.93,2.97.49,4.76,3.26,7.95,3.67,7.78,1.02,28.82-10.58,38.19-13.6,11.06-3.56,23.95-7,35.41-7.23-8.47,8.28-18.74,9.51-28.97,13.67-26.4,10.74-54.71,27.24-78.46,42.99-61.05,40.49-103.88,90.36-93.58,168.6.88,6.7,3.26,13.25,3.59,20.05-1.35-.85-3.09-3.52-3.88-4.92-12.65-22.43-10.27-51.47-5.39-75.76-2.52-2.52-10.25,11.24-11.28,13.28-5.57,11.06-9.13,25.41-11.61,37.53-1.07,5.24-1.1,13.87-2.31,18.09-.73,2.55-8.97,7.77-8.15,12.7l6.48-.92c.05,47.94,6.81,113.31,51.63,140.82,1.06.65,3.06.91,3.06,1.07v13.91c-19.01-12.37-32.04-33.85-42.18-53.78-1.62-3.19-8.81-21.51-9.83-22.15-.59-.38-1.82-.01-2.66-.12-.06,11.69,4.52,24.24,9.1,34.95,2.4,5.6,7.86,13.42,9.42,18.4.15.47.25,1.51-.45,1.37l-4.2-3.22-8.31-9.76c.03,22.59,14.54,44.38,27.42,62.05,4.77,6.55,22.06,24.63,24.23,29.54,2.15,4.86,3.07,20.51,4.4,27.13,3.18,15.93,7.33,31.46,12.52,46.83,2.28,6.74,9.25,20.3,10.16,26,1.44,9.04.92,28.48-.06,37.86-.23,2.25-3.31,11.87-2.66,12.63,2.04,2.39,3.32-6,4.62-5.56l-.91,10.19,2.76-.92v4.63c1.5.28,2.02-.31,2.58-1.6,1.11-2.57,1.74-13.64,1.12-16.31-.18-.75-1.68-.25-1.91-1.97-.55-4.22.68-9.79.15-14.04-.22-1.77-1.78-.88-2-2.66-.5-3.95.13-8.63.53-12.58l13.02,24.07c1.26,4.65.46,14.43,2.46,17.94,1.85,3.24,6,3.44,7.23,4.35-1.01-1-5.36-5.02-5.52-5.37-1.31-2.78-.84-8.2-.95-11.32.94-1.29,16.53,24.51,17.77,26.26,30.77,43.29,98.1,102.9,147.8,121.99,8.86,3.4,11.08,1.03,19.22-2.76,8.83-4.11,18.97-10.18,27.38-15.27,44.99-27.23,85.97-64.12,116.4-107.03.62,2.95-1.03,5.7-.48,8.81.74,4.18,2.31.39,5,.46,3.86.11,6.39,3.79,12.11,2.74,2.7-.5,6.18-4.89,7.44-4.6.65.15,5.02,8.16,8.49,10.08,2.86,1.59,11.72,4.14,11.27-.98-.65-7.31-1.04-14.65-.73-22.07,8.11,2.45,17.46-.21,20.43-8.77,1.8-5.18-.55-11.14,4.59-14.89-3.12-.51-5.84,1.86-8.88,2.24-8.06,1-13.29-2.35-15.22-10.12-.85-3.44-1.75-11.01-.92-14.37.13-.51.51-.45.92-.47,2.44-.08,1.72,6.68,2.58,9.01,1.86,5.08,8.55,5.55,6.7,12.31,2.17-.34,1.27-4.2,2.06-5.34.61-.89,4.85-1.66,6.22-2.6,3.85-2.65,2.75-7.44,2.84-11.54,4.11-.7,2.16,1.08,3.22,3.7,3.63,8.97,12.03,11.15,20.27,6.37,1.52-.88,2.63-3.01,4.06-3.43,2.57-.75,6.33,1.18,9.83-1,1.8-1.12,2.25-12,3.39-14.91-10.4,6.93-10.62-6.72-18.52-9.3-.54-.76,4-6.94,4.41-8.99.29-1.44.59-10.1.21-10.46-.21-.2-4.2.14-5.81-.24-2.61-.61-4.41-4.19-4.81-4.22-.74-.07-2.34,1.34-3.76,1.32-5.39-.09-4.27-4.87-4.16-8.9,3.16,1.22,6.38.61,9.52,1.12,1.27.21,2.61,1.69,3.95,1.68,3.75-.03,2.45-7.25,3.65-9.31.36-.62,7.93-3.73,10.18-5.58,5.09-4.17,8.23-10.57,8.82-17.14.16-1.79-.11-10.91-.93-11.59-2.06-1.71-3.95,3.31-6.26,4.38-8.78,4.09-13.65-6.16-12.05-13.91,1.14-5.52,10.84-15.47,14.44-20.78,28.5-42,43.52-93.22,55.3-142.2.91-2.62,3.33-4.35,6.04-4.63-2.76-2.94-3.66-4.43-4.63-8.34ZM355.91,197.66c4.02,3.18,10.51,11.87,11,16.88.35,3.54-1.17,11.61-5.35,12.24-2.17-4.23,1.57-7.09.75-11.35-2.72-14.08-17.34-18.34-29.94-17.38-3.44.26-7.54,2.84-10.65,1.38-6.53-3.06,5.2-5.83,7.53-6.35,9.77-2.18,18.5-1.87,26.66,4.58ZM368.04,207.32c12.61-3.97,33.68,2.53,30.37,18.79-2.49,12.25-26.54,12.37-32.3,4.91-2.16-2.79.89-4.14,1.74-6.74,2.14-6.52,1.87-10.37.18-16.96ZM348.19,228.67c-3.32,4.78-19.76-.14-24.26-2.78,1.51-8.15,3.16-15,.57-23.17,8.49-2.58,18.75-3.63,26.47,1.8.8,1.27-2.87,7.23-3.24,9.83-.41,2.95.87,13.74.46,14.32ZM310.61,190.99l12.49-16.13c1.02-.26,8.1,8.8,9.17,10.29.62.87,3.1,3.77,2.41,4.54-3.19.59-6.57.96-9.68,1.91-6.16,1.88-9.22,6.2-14.38-.61ZM288.65,163.82c-3.94-1.33-35.04,8.64-36.47,7.32l15.67-34.68-34.22-17.72,35.16-17.71-15.68-34.68,37.11,7.97,9.24-37.65c4.04,2.75,21.84,29.12,24.42,28.68,2.42-.42,19.56-25.83,23.76-28.68,1.3,4.52,7.68,35.59,9.22,36.69,3.04,2.16,31.39-6.87,37.13-7.01l-15.68,34.68,34.21,17.71-33.27,17.72,15.68,34.67c-1.68,1.28-32.55-8.67-36.48-7.33-.75.26-1.16.73-1.34,1.49l-6.22,25.34c-2.7-1.51-11.64-1.2-13.23-2.08-1.78-.99-11.26-16.93-13.76-17.35-2.96-.5-12.59,16.43-15.18,18.05-.53.33-11.49-1.27-12.37-1.56-2.82-.93-4.43-22.8-7.68-23.9ZM274.43,197.13c14.69-7.54,31.36-10.2,43.58,3.21,6.42,7.04,6.46,12.98,3.67,21.81-6.22-.87-2.41-6.2-2.92-9.5-.42-2.73-5.06-8.53-7.25-10.45-8.19-7.16-16.24-6.2-26.16-3.9-4.09.95-4.66,4.23-9.73.89-.89-.58-1.66.09-1.18-2.07ZM307.79,202.7c-4.44,7.22-5.4,16.21,0,23.15-2.04-.24-6.68,2.79-7.88,2.79-4.11,0-10.15.57-13.9,0-.28-.04-2.38-1.07-2.34-1.42,3.57-7.18,4.68-18.24-1.81-24.08,7.21-4.42,18.46-4.59,25.93-.44ZM229.62,240.55c-17.79-11.34-1.52-35.01,13.31-40.17,10.4-3.62,37.73-3.24,40.55,10.39.47,2.3.35,13.7-2.13,14.17-.29.06-3.94-1.81-4.05-2.01-.62-1.08,3.77-8.76-2.55-13.63-12.02-9.28-34.81-5.56-43.88,6.82-10.01,13.67,6.93,25.62,20.63,23.42,4.18-.67,17.66-8.62,20.15-5.33-8.78,9.17-31.19,13.23-42.02,6.33ZM265.69,230.51c-.74,1.18-13.85,6.11-15.9,6.39-6.84.94-18.68-3.72-19.02-11.49-.57-13.2,20.66-21.48,31.61-17.18v13.45c0,1.93,4.45,7.01,3.32,8.83ZM265.16,209.17c8.35-.27,5.51,3.63,6.7,8.6,2.95,12.27,15.24,14.68,26.23,13.7,6.16-.55,11.95-5.89,15.26.88-20.36,7.85-52.52,6.66-48.19-23.18ZM306.91,216.01c-.19-2.05,1.91-12.47,4.57-10.55.2.15,2.56,4.05,2.61,4.3.28,1.31-1.49,3.72-1.64,5.54-.98,11.91,20.75,18.75,30.08,17.97,5.66-.47,8.41-4.67,11.59,2.78-13.74,6.44-45.62-3.16-47.23-20.04ZM378.37,244.45c-.33-.07-.65-.14-.98-.22-1.31-.3-2.61-.66-3.9-1.07-.32-.1-.64-.21-.97-.32-.64-.22-1.28-.45-1.91-.7-1.9-.74-3.75-1.6-5.51-2.56-.59-.32-1.16-.66-1.73-1.01-5.09-3.13-9.27-7.24-11.49-12.15-.37-.82-.68-1.66-.94-2.52-.51-1.73-.78-3.54-.78-5.43,0-3.47.94-7.2,3.05-11.15h0c5.87,1.5,3.04,5.63,2.09,8.84-.1.33-.18.65-.22.96-.06.37-.09.74-.11,1.11-.06,1.1.03,2.17.24,3.22.07.35.16.69.26,1.03.3,1.02.73,2.01,1.26,2.96.18.32.37.63.57.94.8,1.24,1.78,2.4,2.88,3.49.83.82,1.73,1.59,2.68,2.31,1.9,1.44,4.02,2.69,6.19,3.7,3.62,1.69,7.38,2.72,10.57,2.94.48.03.95.06,1.42.07.46.01.92.02,1.37.02.45,0,.89-.01,1.32-.03s.86-.05,1.27-.08c1.25-.11,2.42-.29,3.53-.53,2.94-.65,5.38-1.76,7.34-3.2,11.97-8.8,5.7-29.78-14.37-31.5-.22-.02-.44-.03-.66-.04-.44-.02-.89-.02-1.35-.01-.46.01-.92.04-1.39.07-.94.07-1.89.17-2.83.28-.47.05-.95.11-1.42.16-.47.05-.94.1-1.4.15-.46.04-.92.08-1.37.11-1.35.08-2.64.07-3.8-.14-.39-.07-.76-.16-1.12-.28-1.61-.53-2.9-1.59-3.66-3.52,2.84-1.22,6.2-2,9.73-2.37,1.41-.14,2.86-.22,4.31-.24,3.63-.03,7.32.34,10.74,1.1,2.74.6,5.31,1.45,7.54,2.53,1.35.65,2.58,1.39,3.71,2.2,1.13.81,2.15,1.7,3.07,2.66.92.95,1.74,1.97,2.45,3.03,1.07,1.59,1.92,3.3,2.56,5.06,1.27,3.53,1.67,7.32,1.3,10.99-.06.61-.15,1.22-.25,1.82-.31,1.81-.82,3.58-1.5,5.26-.23.56-.48,1.11-.75,1.65-.54,1.08-1.15,2.1-1.84,3.07-1.73,2.42-3.92,4.46-6.55,5.92-2.62,1.45-5.67,2.32-9.08,2.38-.31,0-.61,0-.92,0-2.79-.02-5.72-.35-8.66-.97ZM385.38,250.17c5.4-1.2,20.01,5.93,21.42,10.68,3.29,11.1-19.94,8.98-26.2-.72-2.72-4.21.38-8.98,4.78-9.96ZM256.71,265.18c-5.47,8.4-26.72-.78-26.72-8.25,0-2.63,3.67-6.2,6.16-6.76,4.69-1.06,10.54,2.08,14.47,4.61,3.71,2.38,9.25,5.55,6.09,10.41ZM287.28,264.2c-5.46,9.55-26.1,1.4-26.83-6.33-.35-3.67,1.69-6.88,5.38-7.71,4.93-1.1,10.61,1.8,14.65,4.42,3.04,1.98,8.99,5.78,6.8,9.61ZM14.45,495.73c-5.06-2.77-7.82-7.34-6.74-13.22.86-4.67,5.63-8.01,5.35-12.74,2.78,2.54,5.74,1.9,9.26,1.86l-7.87,24.1ZM634.92,470.71c.45.35,4.98,9.4,5.18,10.16,1.71,6.59-.38,12.4-6.97,14.86l-6.49-24.1c1.68.88,7.96-1.17,8.29-.92ZM351.61,252.09c6.1-6.15,25.22,4.7,25.71,9.51,1.54,15.08-37.17,2.03-25.71-9.51ZM328.65,249.89c5.18.17,22.18,8.89,17.97,15.28-4.7,7.13-19.85,1.74-24.6-3.47-5.23-5.73-.63-12.05,6.63-11.81ZM324.25,265.92c2.21,3.82-3.54,2.45-6.26,2.6-.35-4.42,4.44-5.74,6.26-2.6ZM292.36,261.7c-2.21-2.42-2.84-4.69-1.48-7.78,4.87-11.12,27.33,4.38,26.97,8.42-.38,4.33-6.79,6.36-10.53,6.26-4.12-.11-12.22-3.89-14.96-6.9ZM285.53,281.03c42.99-23.47,100.42-3.28,109.88,46.82,3.95,20.94.09,53.38-12.14,71.39-2.48,3.66-16.37,17.09-16.95,19.23-.34,1.24.35,3.02,1.24,3.07,1.28.06,9.6-8.5,11.19-10.16.93-.98,1.23-2.69,1.35-2.79.11-.1,1.95-.35,1.84.46.21,17.14,8.24,33.52,18.53,46.82-19.5.81-40.24,2.32-53.76,18.09-1.1,1.29-1.79,4.06-2.76,4.66-2.75,1.69-10.44-.71-13.88.95l-38.03,29.17c-1.81-5.42,5.82-22.17,2.78-25.52-.95-1.05-6.36-2.37-6.47-3.69l11.56-12.53.46,5.56h2.77c1.74-12.25-3.27-21.79-11.12-30.6,36.22-2.41,65.46-29.67,78.8-62.14,1.4-1.3,3.71,3.31,3.6,4.04-.21,1.32-10.24,9.02-8.24,10.79.47.41,2.9.12,3.78-.61,1.47-1.23,4.89-5.81,6.85-7.78,1.29-1.3,4.73-2.14,3.19-4.5-.3-.45-7.03-1.91-5.48-6.57,17.33,2.85,16.92-20.18,13.13-31.23-3.84-11.21-17.86-18.1-25.59-6.73-3.48,5.12-1,8.11-10.11,7.94-6.52-.12-12.54-4.43-17.3-8.46-1.44-1.22-4.88-5.97-5.27-6.06-5.35-1.24-13.67-.78-19.93-2.11-10.48-2.23-22.35-7.79-28.93-16.5-1.33-1.76-4.5-8.35-5.16-8.75-1.94-1.16-11.2.53-11.17-4.62.02-3.38,17.63-15.62,21.33-17.64ZM445.44,338.07c1.5.76,1.87-1.6,2.06-2.54.99-4.96.23-10.94-3.44-14.62,5.89,2.07,10,9.11,12.21,14.67,1.78,4.47,2.36,11.93,4.04,15.44.91,1.91,5.99,5.74,7.81,7.96,2.41,2.94,3.12,4.67,4.66,7.86.38.24.64.6.93.93,3.61,1.07.8-5.09,2.31-6.49,10.21,5.48,17.92,14.81,23.2,25.01,3.71,7.17,5.1,15.16,8.76,21.84,1.47,2.68,4.17,6.94,7.44,6.94-.42,3.95-5,5.41-8.34,5.56,3.88,8.26,4.55,18.16,3.59,27.24-.57,5.35-3.56,11.53-3.59,16.81-.04,6.88,5.45,15.32-7.07,16.19-7.43.52-11.5-9.12-10.54,6.53-3.62.71-6.03-1-9.26-1.86.33,7.09-6.49,10.6-5.57,17.63-6.8.04-5.59-8.21-5.56-12.98-2.74.56-4.38,2.66-7.36,3.3-3.96.84-7.71-.39-11.16,2.27.52-5.23-11.27-13.32-11.91-15.51-1.27-4.37,5.58-11.35-2.94-16.94,13.02-2.72,10.22,12.93,22.64,11.06,4.03-.6,8.92-4.95,11.64-7.84,1.05-2.54-4.15-.86-4.63-1.38-.24-.26.36-5.21-1.85-6.48,5.58-1.93,8.88,3.37,14.38-.93,4.6-3.59,3.04-8.78,3.22-13.92-2.66,3.88-15.67,7.62-16.67,2.32-1.68-8.91,3.02-15.57,11.1-18.55-4.56-4.31-8.42-8.04-8.4-14.84.01-4.27,2.28-7.37,1.93-11.59,2.38-.89,7.34,2.25,8.2-.6,4.09-13.52-9.78-35.42-20.24-43.45-.93-.71-1.18-1.8-2.78-1.38-.16,5.84-.36,10.84,1.68,16.4.87,2.36,2.84,4.48,3.6,6.6,3.84,10.77-1.7,20.73-.43,31.04.18,1.46,1.8,3.78,1.6,4.79-.43,2.26-4.81.69-5.58,2.04-2.53,4.44.46,19.7-.07,20.59-.11.19-2.59,1.24-3.63,2.43-4.57,5.17-5.27,10-13.61,11.42-11.46,1.94-13.62-7.56-24.35-6.27-1.11-7.57,3.69-7.35,7.75-10.33,3.74-2.75-2.74-4.64-4.97-7.74-5.02-6.98.21-16.44-2.77-24.58,31.38,2.81,23.16-32.48,15.26-50.98-8.03-18.82-20.88-34.88-36.56-47.8,24.95,12.24,44.55,34.08,55.39,59.57l4.39,20.65c2.19.46,1.39-1.86,1.4-3.26.09-9.16-4.65-21.08-8.81-29.21-1.53-2.99-6.16-8.55-6.96-10.66-.58-1.55.49-1.79,1.86-.93,3.31,2.09,5.69,8.04,8.8,10.67,1.31-3.84-3.93-9.09-6.48-12.06-15.71-18.32-39.56-30.53-58.87-44.49,24.35,8.71,46.21,24.53,62.57,44.5ZM406.04,300.99c9.53,2.39,19.33,8.22,27.17,14.07,2.17,1.62,14.21,10.65,11.75,13.74l-38.91-27.81ZM570.25,520.47c11.53-20.61,10.37-46.58,7.27-69.24l5.42,8.94c5.51,12.15,8.45,25.09,10.99,38.16.86,4.44.81,12.51,2.35,16.2.95,2.29,5.57,4.04,6.25,7.65l-4.61-.48c-1.09,40.29-4.39,91.13-30.62,123.79-4.97,6.18-12.7,14.29-20.37,16.26v-42.2c7.39-3.98,14.53-7.89,18.73-15.57,5.57-10.2-.07-6.98-1.64-11.72-.41-1.24-.74-7.14-.4-7.47.17-.16,3.34-.02,4.67-.42,16.25-4.86,20.28-26.01,20.4-40.86.03-3.27-.14-11.35-4.56-8.67-.93.57-6.1,16.66-7.99,20.28-6.07,11.6-16.08,25.35-29.21,28.73v-53.79h-32.44c.09-9.71,4.17-19.88,12.97-24.58-3.3-.21-14.5-7.75-11.65-11.63.57-.78,4.96-2.12,7.01-5.06,5.29-7.57-1.9-6.28-6.05-10.63-1.92-2.01-2.88-4.59-4.12-7,18.95-4.28,18.59-21.48,9.43-35.4-3.38-5.14-8.94-7.48-11.27-12.83,2.46-1.13,4.79-2.33,6.45-4.61,4.57-6.31.93-4.2-1.8-5.58-5.89-2.99-11.32-22.99-15.32-30.14-5.81-10.38-15.5-22.05-27.36-25.03l-.46,2.79-8.3-9.31-7.92-22.21c1.07-1.1,23.76,14.19,26.24,15.93,35.87,25.14,71.23,61.15,81.01,105.35,6.08,27.47,2.31,54.9-4.37,81.81,2.44,2.41,10.26-9.63,11.27-11.43ZM577.51,661.74c6.21.96,9.73-4.11,13.89-7.41-6.59,29.05-26.59,52.96-45.4,75.12.79-15.52,1.04-31.05,1.07-46.68,22.26-15.59,36.55-41.02,47.13-65.53,1.67-.22.84,2.02.68,3-1.22,7.57-7.56,20.68-11.03,27.92-1.02,2.12-7.49,12.48-6.34,13.58ZM560.11,592.44c1.23,5.94,6.1,4.41.19,12.67-1.65,2.31-9.99,9.42-12.46,9.33-1.48-.05-.87-2.11-.93-3.24-.33-5.61-.62-15.12-.05-20.51.14-1.32.05-1.31.98-2.22l12.04-6.49c.26,3.38-.47,7.14.22,10.45ZM560.83,580.6c4.36-4.16,8.34-8.24,11.87-13.16,4.45-6.19,6.8-12.91,11.28-18.84-.03,9.01-2.4,22.34-9.55,28.46-2.97,2.55-9.7,5.17-13.61,3.54ZM442.17,764.21c-1.18,11.69-10.59,13.83-12.04.94-.55-4.91.28-10.73.04-15.81-2.41-52.1-2.93-104.49-3.71-156.73-.13-8.81-5.4-28.24,7.13-30.82,8.3-1.71,13.17,4.5,13.29,12.3.05,3.08-1,5.6-1.03,8.32-.49,39.41-1.77,78.52-2.78,117.78-.53,20.49,1.13,43.87-.9,64.02ZM380.09,530.05c-1.6-1.41,9.42-10.08,10.82-10.96,14.65-9.24,41.31-11.92,49.06,7.33.7.11,12.01-4.07,12.79-4.61,2.64-1.83-1.37-18.56-1.23-21.97.2-4.84,11.12-2.49,14.74-5.03-.59,8.57,4.81,12.36,12.98,11.12-.21-2.49-2.19-2.87-1.86-5.93.3-2.74,4.39-6.82,4.61-10.38,3.3-.04,5.71,1.43,9.07-.15,4.4-2.07-.63-3.81.24-7.64,7.35,2.2,10.6,2.63,17.05-1.99,1.23-.88,1.24-2.48,1.96-2.66,1.64-.41,1.94,2.21,3.65,3.76,1.89,1.71,4.05,2.84,6.13,4.22.16,5-8.48,4.2-9.27,6.53-2.15,6.38,8.48,13.95,8.2,15.51-6.23,6.15-7.42,14.66-9.19,22.86h-129.76ZM224.37,530.05h-87.12c.2-3.76-.38-7.51-1.42-11.1-.98-3.42-7.15-12.32-6.99-13.4.06-.43,5.19-3.34,6.44-5.75.65-1.24,2.34-8.27,1.96-8.68-2.81-.23-9.68-2.61-9.33-5.95,2.27-1.75,4.99-3.14,7.09-5.15,1.03-.99,1.39-4.2,3.15-2.82.12.1.26,1.93,1.35,2.8,6.12,4.92,10.21,3.5,17.2,1.83.76,3.82-4.5,6.19.89,7.93,2.96.95,7.86-.84,8.34-.49.22.16,1.1,4.08,1.71,5.27,1.4,2.72,3.72,2.97,2.98,7.18-.32,1.79-2.13,2.37-1.85,4.22,8.18,1.38,13.34-2.81,12.98-11.12,4.33,2.17,8.23,1.49,12.75,2.53,2.98.36,3.28,8.45,5.3,7.66,1.16-.46,5.22-6.04,5.61-7.37.87-2.95-.29-7.4.89-9.31,1.03-1.68,4.42-2.07,5.58-6.46,1.58-5.99-2.51-8.18-1.23-12.36l7.23-7.14c-4.28-1.33-7.45-2.66-12.08-1.43-9.18,2.44-8.7,18.16-22.17,7.83-.24-3.28,5.66-10.02,3.43-11.77-4.96-3.9-18.67,4.77-17.37-7.63,5.3,3.73,10.22-1.14,14.81,3.71,1.99-6.86,3.31-14.47-.91-20.87-1.19-1.81-5.58-4.33-5.64-4.7-.37-2.39,7.16-9.34,5.64-13.37,1.8.58,1.62,3.11,3.75,4.15,1.15.56,3.42.34,3.61.53.52.5.17,12.28.09,14.37-.05,1.42-1.3,5.54-.94,5.94.19.21,3.76.59,5.25,2.18,4.87,5.21,5.03,10.81,14.86,12.48,11.55,1.96,15.66-8.68,27.13-6.26,1.17-7.6-1.51-11.23-7.4-15.31,11.06-7.31,5.04-14.54,6.42-24.16.51-3.53,5-7.56-2.32-8.71-5.84-.91-10.41,1.58-15.25-4.21-12.73-15.19,5.85-52.09,15.94-65.69,1.55-2.09,3.28-5.39,5.84-6.21l-3.21,17.95c-.39,1.08-1.92.38-2.53.81-.72.5-2.2,12.49-2.04,13.19.37,1.63,3.38.95,3.68,2.02.76,2.71-.39,10.2-.1,13.84.67,8.24,3.43,17.1,7,24.53,3.28,6.83,5.16,9.07,7.64,16.43.26.76,8.39,12.63,9.01,13.27,1.8,1.85,5.41.09,8.41,1.79,1.8,1.03,5.22,5.65,7.39,7.45,8.24,6.81,17.46,10.65,21.76,21.35-41.13,1.74-77.63,30.13-73.22,74.2ZM138.17,466.99c-18.06-.78-16.55-17.83-8.72-29.6,1.07-1.6,2.95-4.84,5.02-4.72v15.3c0,2.99,5.98,16.75,3.7,19.01ZM182.27,400.21c-1.56-2.7-8.55-1.52-8.88-1.84-.31-.3-.06-7.36.11-8.71,1.35-10.51,10.33-22.84,18.42-29.32-.18,2.94-.71,6.26-1.59,9.07-2.75,8.81-6.47,10.8-5.8,21.99.41,6.9,5.77,17.07-.94,21.81.66-3.3-1.38-5.97-1.8-8.88-.18-1.27,1.18-2.9.47-4.11ZM327.18,392.25c4.4-2.83,19.93-15.88,21.84-19.88.58-1.22.59-2.38.48-3.68-32.25,4.85-64.73-4.69-90.53-24-6.2,5.08-14.58,8.38-22.55,7.75,1.16-1.33.71-6.68.95-6.93.38-.39,8.28-1,10.69-1.82,3.35-1.14,10.13-6.56,12.01-6.5,1.14.03,15.78,10.74,18.98,12.5,23.8,13.16,51.86,17.48,78.8,14.36-10.65,31.45-47.95,48.62-78.19,55.76-4.48,1.06-14.92,4.25-18.23,1.3l-5.52-8.84c24.34,1.04,50.87-6.92,71.29-20.02ZM252.67,404.82c-9.49-11.5-15.66-34.35-12.42-49,4.64,1.44,16.79-6.65,18.88-6.58,1.25.04,18.1,10.77,21.79,12.47,18.29,8.43,41.22,13.8,61.15,10.68,1.5,1.52-8.97,10.43-10.28,11.5-15.41,12.52-42.64,21.66-62.43,22.86-4.07.25-14.32.95-16.69-1.93ZM292.94,485.6c-1.77,7.58-4.18,15.83-4.63,23.62-.08,1.36-.2,4.75,1.42,5.07,2.56.49,35.93-28.94,41.47-31.76,2.64-1.81,14.28.2,15.42-.8.18-.16.45-2.75,1.15-3.94,7.25-12.24,26.81-17.36,40.21-18.21,4.46-.28,14.03-1.48,16.21,2.77h-17.15c-8.78,0-24.87,7.06-31.53,12.96-2.17,1.92-7.87,10.06-8.51,10.24-4.28,1.15-11.87-1.54-16.53,1.8l-45.37,36.22c-1.38.04.27-17.75.57-19.84.43-3.01,3.66-13.39,3.38-14.84-.6-3.21-8.18-4.52-9.8-7.52-.18-2.25,16.61-19.01,19.76-19.94,1.19-.35,1.84.22,1.36,1.36-.4.95-9.2,8.01-11.14,10.19-.83.93-5.41,6.15-5.5,6.57-.41,1.82,7.38,5.55,9.22,6.04ZM393.07,309.33c1.07-1.17,9.61,7.23,10.67,8.33,15.19,15.83,32.15,46.59,29.1,69.02-.69,5.1-4.49,11.32-9.86,12.39-2.97.59-14.14-.76-13.95,4.4.02.64,2.16,1.68,2.56,3.71,1.8,9.09-4.85,17.86,6.49,25.02-5.54,3.92-9.23,7.95-6.96,15.35.52.92,5.84-.38,8.18.15,2.48.56,5.01,3.49,7.44,4.6,9.66,4.39,17.39.14,23.8-7.12.96-1.09,1.03-3.02,2.26-4.22,1.72-1.69,4.97-1.61,5.15-1.81.29-.32-.93-4.87-.97-5.98-.1-2.76-.53-11.99-.02-13.85.12-.42,6.5-2.34,7.46-4.27-.6,3.68,5.95,10.37,5.64,12.45-.05.3-3.53,2.33-4.7,3.78-5.49,6.85-4.01,13.98-1.84,21.79,3.24-4,4.58-1.48,7.74-1.9,2.01-.26,7.28-3.23,7.11-.41-.69,11.48-15.07.62-18.14,7.87-.21.49,4.22,7.53,4.27,9.67,0,.31-4.51,2.92-5.34,3.11-8.66,2.04-7.26-3-11.82-7.27-5.24-4.9-10.97-4.55-17.19-1.8l7.03,7.38c1.16,2.96-1.12,5.53-1.49,8.37l-22.95-12.27c-.66-5.84-7.18-9.31-10.88-13.69-9.14-10.83-18.43-32.67-18.11-46.89.05-2.27,7.38-14.27,8.84-18.05,4.04-10.4,5.85-21.41,6.96-32.45v-18.55c-1.09-9.7-3.17-17.72-6.48-26.89ZM393.06,307.48c.63.32-.54,1.57-1.84.91-.63-.32.54-1.57,1.84-.91ZM389.36,302.83c-.63-.32.54-1.57,1.84-.91.63.32-.54,1.57-1.84.91ZM463.5,386.79c-.42-10.07-7.32-15.49-7.41-25.52,1.75-.41,2.19.99,3.24,1.85,6.03,4.93,13.84,18.03,15.07,25.73.23,1.47.57,9.19.23,9.52-.33.31-7.08-.49-8.85,1.82-1.27,1.2,1,2.32,1.09,3.28.13,1.3-4.1,6.7-2.45,9.73-7.5-5.63-.55-17.44-.92-26.41ZM295.74,459.58l-9.63,8.43c-1.17,2.71-11.33,11.87-11.62,13.48-.53,2.93,9.56,5.54,10.95,8.37-2.38,11.28-4.96,24.53-3.65,36.07.16,1.39.1,2.34,1.45,3.2l48.3-38.83c4.26-2.2,12.63-.52,17.33-2.13,1.28-.44,3.75-5.2,5.24-6.82,9.73-10.61,24.3-15.34,38.45-16.25,17.45-1.11,15.15,1.66,28.02,9.13,12.14,7.05,28.06,12.94,28.08,29.86-17.31-13-36.34-19.19-55.89-6.32-11.88,7.82-22.82,22.77-27.52,36-7.81-6.31-13.66-14.75-19.02-23.19-1.89-1.69-8.54,2.57-10.91,3.9-13.44,7.48-28.98,20.53-40.51,30.87-2.53,2.27-10.71,12.17-13.24,11.51-.96-.25-7.44-7-8.45-8.33-3.48-4.6-7.14-12.69-8.61-18.28-1.75-6.63-1.61-13.52-2.99-20.19-5.3-1.14-10.67-.23-15.82.98l-18.51,7.44c3.39-35.92,34.35-57.25,68.57-58.9ZM239.79,516.26c5.87-2.27,12.62-3.34,18.88-3.84.79,18.71,7.4,39.35,24.43,49.06,15.07-14.45,30.93-30.18,48.87-41.09,2.85-1.73,10.54-7.43,13.41-5.25,2.01,1.53,7.2,10.59,9.71,13.49,1.68,1.95,9.53,10.9,11.97,8.79.13-.11.32-2.36.78-3.36,11.81-25.41,34.9-50.06,65.06-35.99,2.98,1.39,21.09,12.34,17.62,16.21l-13.27-8.51c-37.38-16.14-56.8,11.23-71.59,40.96-6.88-3.03-11.52-8.77-16.12-14.4-2.1-2.57-6.42-10.96-9.55-10.49-4.56.68-21.77,13.88-26.15,17.51-11.07,9.18-20.99,19.94-30.73,30.51-11.74-6.36-20.08-18.86-23.99-31.45-1.08-3.48-3.26-19.42-4.1-20.01-2.39-1.67-10.63.43-13.53,1.41l-13.4,7.45c-1.67-5.56,7.43-9.35,11.7-11ZM366.19,609.34c.29-2.48-4.56-1.13-6.74-1.61-1.65-.36-4.01-1.16-5.53-1.88-19.18-9.02-3.81-32.96,11.29-23.36,2.5,1.59,6.18,7.74,7.84,7.8,16.62-2.75,31.44-17.29,48.74-12.95v20.4c-17.69-3.77-35.02,5.15-51.9,9.29,8.32,25.91,16.49,51.89,24.56,77.89.45,1.46,1.96,2.45,2.29,4.22,1.4,7.56-4.9,18.15-10.79,22.52-17.85,13.23-42.95,1.28-43.95-20.72l24.2-81.61ZM394.11,615.03c1.84-3.49,14.16-7.38,18.41-8.47,3.31-.85,6.75-1.53,10.2-1.38v14.84c-5.9-.31-18,6.78-22.66,6.47-5.12-.34-8.45-6.7-5.95-11.45ZM513.32,433.36c-.07-1.05-1.87-1.83.69-1.61,10.37,11.12,18.16,33.84-4.16,35.24-.65-7.8,3.07-14.95,3.69-22.74.29-3.59.02-7.3-.22-10.89ZM449.6,604.25c5.26,1.03,27,6.19,28.97,10.42,2.06,4.41.04,11.47-5.4,11.82-4.99.32-17.4-6.69-23.58-6.47v-15.77ZM478.39,689.16c7.95-27.18,17.28-54.02,23.97-81.54-.33-1.25-1.41-1.13-2.27-1.5-6.53-2.8-26.56-8.23-33.61-9.03-5.34-.6-10.73-.44-15.96.67v-20.4c17.55-4.42,32.66,10.32,49.69,12.98,1.59.05,3.48-5.05,5.97-6.9,16.72-12.47,32.63,15.5,11.05,23.11-3.3,1.16-6.67,1.67-10.18,1.41v2.31c8.64,25.09,14.88,51.25,23.96,76.17.53,1.47,1.96,1.06,2.09,2.65.19,2.32-.7,4.93-1.29,7.17-8.37,31.85-54.45,25.15-53.43-7.09ZM433.85,335.76c.03-.81,2.67-.56,2.78-.46.11.09.6,2.28.47,2.77l-3.25-2.3ZM267.75,311.38c.59.34,5.56,9.28,7.61,11.39,8.35,8.58,23.08,13.86,34.77,15.29,3.34.41,7.94-.68,10.92.21,3.1.92,10.99,11.75,19.92,14.38,6.32,1.86,16.82.09,20.64-5.72,2.47-3.76,3.01-12.69,10.5-12.51,16.8.41,21.87,39.41,2.43,37.96-1.45-6.82,4.58-4.9,7.92-9.23,5.28-6.84-1.25-24.62-9.73-19.01-8.91,5.9-.76,22.76,8.29,13.4,1.13,6.29-6.25,5.03-8.26,7.96-1.23,1.8-3.1,9.86-4.55,13.07-13.46,29.88-41.02,58.49-75.72,60.57-6.35.38-10.7-3.61-15.29-7.86-.92-.85-6.62-6.04-5.54-6.96,29.76-5.33,66.93-19.86,83.59-46.66,1.32-2.12,7.53-14.43,7.18-15.88-.76-3.08-8.29-.57-10.56-.49-34.83,1.16-65.12-5.54-91.8-28.82-6.17,3.89-11.91,9.8-19.93,9.3,1.75-8.08,3.32-16.24,6.06-24.07.78-2.22,3.14-9.18,4.08-10.63.53-.82,1.41-.87,1.89-.52.08.06-.12,1.26.68,1.83,6.44,4.58,12.27,1.46,14.9,2.99ZM375.91,357.23c-5,0-5.3-9.53-.76-10.72,5.28-1.38,6.83,10.71.76,10.72ZM261.44,295.43c.63.32-.54,1.57-1.84.91-.63-.32.54-1.57,1.84-.91ZM258.2,296.35c.6.31.6.62,0,.93v-.93ZM256.81,297.28c-.28,1.31-5.92,4.17-6.48,3.7-2.1-1.76,5.82-3.75,6.48-3.7ZM217.59,313.21c7.28-5.07,15.27-8.93,23.46-12.22l-18.46,12.59-19.54,15.22c-2.56-2.74,12.34-14.06,14.53-15.59ZM203.04,321.84c-2.42,4.87-4.84,11.82-.44,16.22,10.79-14.49,26.29-28.32,42.79-35.99.91-.43,3.33-1.76,4.01-1.08.49.49-.22,3.23-1.35,3.74-10.9,6.68-22.21,14.43-31.57,23.12-3.31,3.08-11.89,11.4-13.88,14.86-1.19,2.07-.58,3.58,1.86,2.8.5-.16,5.27-7.12,6.47-8.38,5.46-5.71,11.48-10.79,17.63-15.75,1.97,1.83-.81,1.72-1.39,2.51-10.57,14.26-30.31,41.7-31.43,59.29-.21,3.36,1.09,5.94.67,8.89-.24,1.67-4.97,8.09-.4,6.17,5.22-2.19,2.3-9.84,2.39-13.29.14-5.12,2.48-12.15,4.51-16.9.92-2.14,1.92-5.53,3.85-6.8-4.22,15.37-4.91,31.74-2.51,47.51.35,2.32,3.63,17.78,4.39,18.34.7.52,2.48-.55,2.68-1.48.18-.85-3.84-13.83-4.29-16.85-3.56-23.57-.35-49.99,12.9-70.06,6.71-10.18,16.15-22.02,25.77-29.38-2.17,8.23-9.78,14-14.65,21.04-10.15,14.68-27.28,50.6-14.09,66.61,5.28,6.41,9.96,4.04,16.24,5.08,3.82.64.78,2.84.44,6-.59,5.43,1.84,10.19.53,15.38l-8.86,9.67c5.34,2.42,9.61,5.2,10.2,11.6-12.09-1.64-17.64,12.54-30.54,4.14-4.14-2.69-5.29-7.32-7.89-9.72-1.37-1.26-4.07-1.67-4.21-1.85-.1-.13.89-2.03.94-3.19.12-2.81.55-16.73-.89-17.7-1.37-.92-4.41.31-5.61-1.83,5.48-8.68-.17-17.47-.07-26.89.11-10.57,9.68-20.12,7.48-31.98-2.1-2.35-14.3,12.85-15.58,14.54-19.92,26.36-44.58,76.04-15.01,103.71.76.71,5.66,5,6.05,5.09,1.42.33,2.92-1.92,2.3-2.76-.29-.39-6.44-4.05-7.91-5.54-22.8-23.23-6.91-59.46,6.07-83.5,1.74-.19.76,1.95.65,2.97-.23,2.3-1.3,10.38.27,11.87.27.26,6.5-1.9,7.41-.94.14.15-.12,2.8.22,3.93.75,2.46,2.39,4.97,2.39,7.67,0,5.14-4.49,11.43-8.15,14.84,9.46,4.66,11.29,10.57,10.18,20.87-6.63.46-11.78.28-16.68-4.64-.74,6.26.19,15.01,7.96,15.75,3.55.34,6.09-2.71,9.64-.9-1.63,1.22-1.65,6.21-1.89,6.44-.62.62-5.62-1.14-4.59,1.41.38.94,5.9,5.21,7.11,5.87,16.64,9.15,12.41-11.32,27.17-9.1-1.27,2.09-4.13,4.62-4.46,7.16-.41,3.17,2.94,6.76,1.48,11.65-.95,3.2-5.76,3.88-6.19,4.47-.46.63,2.38,10.4-1.95,13.35-2.57-.83-2.95-4.15-5.8-5.34-4.46-1.86-11.25.35-15.51-4.41.11,4.96-.06,13.04-6.49,12.98,1.21-5.13-2.21-7.47-3.93-11.38-.72-1.63-.55-5.93-2.12-6.25-.95-.19-6.29,3.28-8.78,1.85,1.21-1.88.84-8.73-1.45-9.24-2.23-.49-6.4,5.26-14.02,1.08-5.62-3.08-1.58-11.06-2.15-17.33-.46-5.09-3.06-10.41-3.58-15.89-.83-8.8.4-17.21,3.59-25.38-1.94.73-10.03-3.82-8.35-5.56,3.69.19,5.62-3.45,7.24-6.22,4.33-7.4,6.18-17.15,10.82-25.34,5.3-9.35,11.9-16.89,21.34-22.23.89,13.32,1.54,6.19,6.04.48,1.68-2.13,9.21-8.85,9.7-9.76,1.39-2.64,2.31-10.94,3.74-14.82,1.92-5.2,5.9-13.81,11.55-15.33ZM70.98,450.3c.6.31.6.62,0,.93v-.93ZM71.98,689.49c-6.59-10.84-12.93-22.46-14.92-35.14,3.44,3.43,7.7,8.06,12.98,7.43,1.33-.16,1.63.44,1.38-1.4-8.14-13.33-14.89-27.93-18.52-43.14l12.81,23.8c9.59,16.09,20.59,32.52,37.04,42.22.83,16.64.69,33.4,2.96,49.89-12.22-13.08-24.38-28.27-33.74-43.67ZM87.91,591.51c.57-3.13.06-6.37.22-9.52l14.82,7.41c1.15.33.87,1.31.98,2.23.87,7.6-.75,16.86-.06,24.66-1.72.52-1.59-.79-1.85-.92-5.51-2.74-11.11-5.52-14.68-10.82-5.38-8.01-.59-6.77.56-13.05ZM64.04,547.68l5.72,11.42c5.22,7.59,10.01,16.65,18.36,21.05.25,1.51-1.25.88-2.3.92-16.3.72-22.67-19.98-21.78-33.39ZM104.34,530.05c-.1,0-1.39,1.29-1.39,1.39v53.33c-18.17-5.22-29.66-25.34-36.32-42.02-1.53-3.84-.6-9.11-6.32-8.06v20.87c0,8.48,7.57,23.21,15.57,27.09,2.72,1.32,8.2,1.83,8.53,2.13.28.26.15,6.68-.17,7.71-.94,3.05-5.2.6-3.1,8.08,2.8,9.95,13.63,15.17,21.8,19.91v43.12c-11.8-5.85-21.26-15.94-28.19-26.97-15.47-24.65-22.11-61.52-23.7-90.35-.3-5.46,1.12-19.11-.15-23.03-.88-2.7-3.48-.99-5.4-1.06.63-2.99,5.66-5.28,6.45-6.76,1.5-2.81,1.42-12.27,2.13-16.18,2.88-15.99,6.92-33.86,16.42-47.09-3.23,23.4-3.87,48.13,8.19,69.25.97,1.69,8.03,12.86,10.35,10.5-5.63-25.15-9.63-49.54-5.29-75.31,9.03-53.6,53.19-94.21,97.13-121.68,1.32-.83,10.58-6.58,11.04-6.1l-6.61,20.74-9.61,10.79-.46-2.78c-12.73,3.63-23.1,16.62-28.89,28.13-3.15,6.24-7.21,22.78-11.9,26.12-3.23,2.3-6.73-.15-3.57,6.39.43,2.62,6.69,3.76,6.25,5.55-.76,3.09-6.67,6.42-9.13,9.43-5.35,6.55-8.51,16.61-7.46,25.04,1.24,9.96,14.58,11.76,14.84,13,1.03,5.89-11.97,11.24-12.11,12.11-.73,4.43,6.39,10.03,10.24,11.01-1.98,6.51-6.47,8.33-12,11.15,8.88,5.59,11.31,14.74,12.96,24.58h-30.12ZM135.39,881.54h-.91v-3.7h.91v3.7ZM136.31,846.3c-.32.63-1.57-.54-.91-1.85.32-.63,1.57.54.91,1.85ZM112.18,711.41l.04-173.01,143.1-.05c2.44,9.98,17.91,34.84,28.84,35.36,13.93.67,29.49-15.97,39.38-24.17v175.75l-181.18,111.76c-18.86-39.08-27.38-82.4-30.19-125.63ZM381.68,986.55c-7.57,5.26-50.5,32.55-56.59,32.04-2.56-.21-13.28-6.05-16.4-7.65-63.24-32.58-132.28-98.19-162.04-163.38-.82-1.8-3.79-7.19-2.81-8.57l181.24-111.24,181.85,112.65c-26.78,59.06-72.3,109.37-125.26,146.15ZM495.01,881.54c-.42,4.16-.94,8.29-5.55,9.27-2.2,5.81-3.78,1.2-2.78,0,.18-.22,2.06.15,2.78,0,1.24-3.27,2.26-7.03,5.55-9.27ZM638.41,586.82c-4.37,12.24-6.73,28.29-10.61,41.32-11.07,37.23-25.79,73.05-48.06,104.94-4.01,5.75-9.81,9.86-11.29,17.45-2.24,11.52,9.09,21.54,19.23,13.23,1.04,12.37-2.35,20.45-13.54,25.85-1.54.74-4.88,1.04-5.51,1.91-1.13,1.58-.05,6.27-.41,8.4-1.84.25-2.39-1.48-4.19-1.83-2.49-.48-5.89.6-8.17-.17-1.85-.62-1.67-4.05-4.32-3.56.81,6.91-3.09,14.18,5.31,16.47,4.75,1.3,5.45,1.73,9.67,3.32,1.29.49,4.32.46,4.48.62.38.37-1.46,9.19-2.07,10.45-1.79,3.73-6.33,2.68-5.37,5.78.12.38,5.09,3.19,6.54,4.61,2.29,2.24,4.17,6.45,6.11,7.79,1.78,1.24,6.58,1.74,6.81,2,.25.29-.66,7-.91,7.63-1.47,3.8-8.28-.4-9.65-.3-.79.06-4.03,8.42-12.96,7.45-6.67-.73-7.78-7.21-8.92-12.5-.24-1.11.67-1.73-1.26-1.3-10.53,2.35-3.73,8.28-6.98,12.51-1.93,2.51-6.76,2.65-9.33.81-4.92-3.52-1.57-10.14-2.95-12.34-.21-.33-6.08-2.77-7.26-2.93v19.94c0,.64,2.12,4.71,2.77,5.57,4.32,5.77,12.05,6.22,18.55,5.1-1.71,6.43.11,12.03-6.53,16.18-4.79,2.99-10.56.9-15.71.51.6,7.23-.82,15.65,0,22.72.05.4,1.27,1.28.92,2.31-8.62.68-14.77-6.6-14.83-14.83-2.92-.09-3.53,3.32-5.62,5.04-7.9,6.51-11.94-2.01-19.4.52-2.22-8.8,11.29-14.27,13.2-18.77,1.41-3.33.84-9.02,2.06-12.78,2.21-6.82,10.07-14.56,11.62-22.23l.99,8.87c-4.21,4.13-.7,12.07-1.95,17.38-.18.75-1.68.25-1.91,1.97-.27,2.06.26,16.52,1.01,17.22.1.1,2.67.08,2.77-.01.34-.28-1.44-4.29-.91-5.56l3.69,1.85-1.84-13.9,2.59,7.14,2.96,2.13c-1.58-6.83-3.24-13.84-3.69-20.87-.36-5.54-.76-17.06.05-22.19.87-5.53,9.46-21.85,12.01-28.79,6.7-18.24,11.68-36.88,15.45-55.95,1.48-7.49,2.09-21.98,4.45-28.01,1.66-4.23,13.06-15.72,16.62-20.47,14.57-19.43,32.33-43.36,32.05-68.55-4.52,3.28-5.9,10.36-12.02,11.6,8.3-16.8,16.31-33.96,18.53-52.86l-3.14-.52c-12.04,26.84-25.15,56.16-49.25,74.23-.35-3.55-1.13-8.07-.46-11.59.36-1.88,12.31-9.61,14.86-12.02,31.98-30.18,36.46-88.96,37.98-130.33l5.55.92c.63-5.18-4.87-8.28-6.87-11.2-1.73-2.55-2.79-17.5-3.76-22.21-2.71-13.24-8.66-34.38-17.34-44.79-1.78-2.13-5.52-6.13-5.02-.6.43,4.74,2.61,11.01,3.2,16.32,2.26,20.13.55,45.43-12.85,61.55,11.6-45.82,5.64-87.8-21.5-126.42-24.04-34.2-55.38-53.6-90.05-74.98-17.42-10.74-34.58-21.44-54.12-29.31-12.07-4.86-24.33-6.6-34.55-15.52,18.87,1.58,36.93,7.28,54.39,14.21,9.3,3.69,19.71,12.68,29.5,3.89,3.51,3.59,3.14,7.53,2.33,12.01,8.43,2.27,16.67,5.76,24.7,9.14,12.23,5.14,16.42,11.49,31.17,6.47,1.81-.61,3.59-3.02,5.27-2.2,1.67.82,6.51,8.76,6.99,10.71.8,3.18-.35,7.58,1.3,9.83.61.84,8.34,6.48,9.62,7.07,2.02.93,10.25,2.41,10.67,2.77,3.28,2.79-1.15,15.3-.35,16.53.55.85,9.67,5.69,11.56,7.03,58.83,41.6,84.55,107.63,89.05,177.99.41,6.46-.78,14.12.09,20.31.36,2.58,2.75,6.07,2.75,7.45,0,.35-2.86,2.09-4.03,5.35Z"/>
      <polygon class="cls-1" points="390.91 687.71 347.39 687.71 368.43 614.01 390.91 687.71"/>
      <path class="cls-1" d="M255.89,602.4c-.23,1.6,2.19.98,3.22.91,5.88-.43,9.13-2.68,15.29-.42,10.89,3.99,11.98,16.47,8.64,26.21-3.93,11.46-17.33,8.42-24.81,2.02l-11.59-10.65c3.81,4.79,7.47,9.85,11.55,14.4,7.72,8.59,20.21,16.44,23.69,27.31,2.64,8.26,4.92,25.63,1.98,33.6-1.59,4.32-19.61,30.23-22.88,32.75-5.52,4.25-20.03,7.46-26.92,7.46-5.89,0-13.26-2.5-19.58-2.47-11.96.07-25.5,2.56-37.9,1.55-9.37-.77-16.83-12.27-20.96-19.82-2.61-4.76-12.07-24.68-12.76-28.96-1.46-9.1,4.68-18,8.08-26.12,2.38-5.69,2.69-12.01,7.62-16.94-10.4.65-12.05-7.04-10.57-15.6.88-5.06,4.84-9.25,5.93-14.08-13.68-1.16-20.71-23.43-12.48-33.36,6.38-7.7,12.71.15,18.02,4.6-.06-.49-.02-1.13.35-1.47,2.72-2.52,11.39-11.27,14.13-11.52,3.88-.35,11.92,5.9,17.46,5.54,4.7-.31,6.27-5.73,13.9-4.55,2.57.4,4.11,2.59,7.27,1.65,1.68-.5,4.9-5,6.86-5.29,1.79-.27,5.66,5.45,9.05,5.51,3.81.06,7.47-3.57,10.28-3.74.77-.05,10.37.91,10.89,1.07,1.33.41,2.18,2.35,3.09,2.52,2.07.39,6.02-6.52,12.44-2.28,10.48,6.93,5.98,31.98-9.32,30.2ZM248.48,606.1c.57-7.11,9.39-5.65,13.83-7.95,9.71-5.03,6.44-32.81-6.9-21.74-5.48,4.55-11.33,19.88-14.74,26.98-1.76,3.68.53,5.96-5.85,7.13-11.61,2.14-24.07-.32-34.92,1.22-3.96.56-6.93,4.02-10.4,4.25-1.49.1-9.76-1.82-10.35-2.67-.66-.93-.03-3.54-1.59-5.36-1.35-1.56-4.18-1.63-6.07-3.2-3.22-2.66-8.21-12.73-12.44-16.3-5.02-4.24-11.72-13.35-16.62-4.54-3.34,6.01-.77,16.35,3.26,21.58,2.49,3.23,9.09,6.25,13.81,7.1-.64,3.12-3.53,4.43-5.14,7.36-2.96,5.36-6.82,19.2,1.98,20.42,11.47,1.59,22.84-9.76,21.71-21.29l31.03-1.93c8.56,1.07,18.05,1.8,26.48-.34,2.34-.59,6.33-3.33,7.85-3.28,5.36.15,17.34,23.36,31.49,18.98,7.55-2.34,8.98-17.63,4.48-22.68-7.72-8.66-21.19-1.22-30.89-3.74ZM236.21,605.88c3.16-5.2,5.09-22.05,8.6-25.24.67-.61,8.17-3.79,3.11-5.09-6.97-1.79-11.76,7.91-8.72,13.85-3.6.57-9.29-4.28-12.32-3.56-2.51.59-5.21,6.71-7.61,8.2l-1.39-12.05c-7.35,2.91-14.61,4.76-19.92,11.12l-1.39-9.27c-.88-.79-13.74,6.36-16.3,6.51-3.38.19-2.72-2.39-4.09-3.29-2.31-1.52-7.31,1.68-10.19,1.43.79,7.72,10.29,11.27,13.92,16.21,2.34,3.18.84,5.38,5.49,6.56,7.22,1.83,7.51-2.44,12.63-3.24,6.39-1,15.32.28,22.18-.07,2.56-.13,15.26-1.17,16.01-2.07ZM254.95,603.33c-1.3-.67-2.47.59-1.84.91,1.3.67,2.47-.59,1.84-.91ZM240.87,619.29c-19.86,2.78-39.58.81-59.54,2.66-.15,4.57-2.73,8.55-5.15,12.43-4.45,7.13-12.34,6.88-16.51,14.08-2.71,9.03-9.26,19.54-11.73,28.14-.65,2.27-1.41,5.25-1.23,7.59.37,4.57,10.69,26.05,13.55,31.03,3.97,6.91,10.2,16.18,19.16,16.15,11.19-.04,22.43-1.6,33.32-1.97,8.32-.28,15.89,2.25,24.19,1.94,6.44-.24,18.84-2.59,23.15-7.43,3.16-3.54,19.17-26.32,20.2-29.86,2.21-7.62-.15-26.79-3.55-34.15-2.89-6.25-16.71-17.08-22.25-23.18-4.91-5.4-9.53-11.38-13.62-17.43Z"/>
      <path class="cls-1" d="M254.95,603.33c.63.32-.54,1.57-1.84.91-.63-.32.54-1.57,1.84-.91Z"/>
      <path class="cls-1" d="M169.69,608.87c-10.79-.07-28.12-3.4-24.82-17.88,1.8-7.93,9.81-1.5,13.71,1.65,5.72,4.61,8.44,9.52,11.11,16.23ZM165.05,606.1c.78-4.79-14.89-18.42-17.6-15.76-2.43,12.37,8.09,14.04,17.6,15.76Z"/>
      <path class="cls-1" d="M249.4,611.67h16.22c1.09,0,9.78,1.63,10.46,2.66,1.79,2.7.59,11.32-1.65,12.66-5.5,3.32-20.15-7.96-23.65-12.54-.72-.93-1.79-1.17-1.38-2.79ZM273.45,616.35c-.93-.96-16.07-2.47-18.49-1.89,2.44,3.93,11.87,10.24,16.28,10.18,3.23-.05,2.56-7.92,2.21-8.29Z"/>
      <path class="cls-1" d="M173.27,615.51c3.62,2.26.21,15.32-6.87,16.51-6.1,1.02-12.52,1.01-11.52-6.82.77-6.01,14.24-12.27,18.39-9.69ZM171.54,618.15c-6.46-.15-15.19,3.42-13.91,11.13,8.95.97,15.24-.79,13.91-11.13Z"/>
      <path class="cls-1" d="M247.55,598.68c-1.05-1.14,7.87-15.91,9.21-17.19,1.71-1.62,3.24-1.99,5.24-.51,5.81,12.47-5.93,13.88-14.45,17.7ZM253.11,593.11c4.61-.78,7.97-2,8.15-7.22.3-9.08-8.75,6.63-8.15,7.22Z"/>
      <path class="cls-1" d="M342.08,1111.54c-8.62,2.45-18.59.25-27.27,0-18.82-.56-37.78-1.44-56.65-.96-17.15.44-19.71,2.58-37.3-1.63-1.83-.44-3.79.63-6.15-.18-2.49-.85-3.55-3.25-4.88-3.57-1.96-.48-12,2.89-14.07-.27-1.56-2.37,1.52-12.88-.03-15.22-2.15-3.22-16.11-8.7-20.07-8.81-9.04-.25-3.98,18.33-12.5,18.6-5.51.17-18.13-16.87-21.66-21.42-21.29-27.47-39.76-58.4-59.38-87.13-1.1-1.33-.9-.79-1.89,0-3.21,2.57-5.26,9.49-10.19,11.13-2.51-1.23.25-3.65-.45-4.61-.5-.67-12.51-4.71-15.46-6.34-22.78-12.59-37.88-36.75-42.67-62.11-1.36-7.23-3.99-23.94,1.54-29.44,16.2-6.26,35.09-13.03,45.29-27.95,2.45-3.58.93-7.16,6.61-3.5,4.7,3.03,8.13,10.4,8.32,15.86.08,2.15-1.52,11.25-2.61,12.75s-4.54-.32-4.76,1.08c-1.77,11.51,2.76,24.93,6.52,35.64,2.8-1.18,1.2-4.48,2.7-7.02,2.8-4.76,11.9-4.6,16.58-3.47,14.45,3.5,34.85,34.79,43.56,47.3,13.58,19.5,26.52,40.01,38.18,60.57,13.24-5.69,10.77-30.61,27.35-12.08,1.49,1.67,2.27,4.61,3.63,5.64,2.18,1.65,9.93,1.83,10.59,2.85,1.64,2.55-1.49,11.82-.87,14.17.26.99,6.73,1.3,7.99,3.32,1.3,2.07-1.39,5.15-.61,5.71,1.3.93,6.14,1.62,6.97,1.72,29.34,3.54,62.69-.3,92.81-.04,27.38.24,55.05,1.81,82.41,2.86,11.96.46,23.77-1.47,35.72-.97-.7-6.96-8.14-11.42-4.09-18.47,2.89-5.03,21.79-23.5,26.95-25.89,2.43-1.12,4.12-1.71,6.53.14l9.53,14.54c8.62-17.12,16.28-32.94,29.19-47.3,5-5.56,11.46-10.57,16.21-16.24,11-13.15,17.04-29.34,30.6-40.79,5.31-4.48,10.55-8.87,17.87-7.65.94.16,6.88,2.34,7.11,2.65.64.88-1.55,5.15-.89,6.81l2.8,9.78c3.56-14.35,1.43-29.36.99-43.98-9.52-.29-9.41-8.97-7-16.29,2.11-6.41,10.69-14.24,17.66-13.85,1.73.1,9.08,9.38,11.51,11.53,13.03,11.52,31.48,10.21,38.37,26.52,5.87,13.87-2.84,28.2-8.83,41.04-9.01,19.29-22.79,48.02-45.29,52.54l.92,2.77c-5.62-.57-11.46-8.97-13.92-13.9-1.47-.33-1.9.52-2.8,1.35-14.21,13.12-28.2,44.53-39.35,62.12-3.62,5.71-10.85,10.44-14.02,16.49-1.97,3.76-2.79,7.4-4.27,11.18-3.69,9.36-8.61,18.5-21.05,20.66-10.33,1.79-11.97-2.52-15.35-10.7-3.02,2.66-14.79,10.28-14.24,14.13.3,2.09,3.35,4.57,2.73,7.51-5.14,4.34-12.57,2.41-18.11,3.42-2.82.51-6.92,3.96-11.24,4.52-16.74,2.17-35.68.93-52.66,3.87l-1.49.84c-9.84-.36-19.83.48-29.66,0-1.34-.07-4.02-.81-6.49-.93v-2.82c.62,0,1.24,0,1.85,0,4.14,1.72,10.12.91,14.83.93,3.07,0,6.21.13,9.27,0,3.43-.15,6.45-.71,9.27-.93,16.49-1.28,33.13-2.38,49.58-3.72,8.43-.69,11.81-3.8,15.79-4.57,4.64-.89,11.14.74,16.21-.95-6.23-12.74-14.72-26.15-15.76-41.56-5.22.6-9.06,3.14-14.32,3.62-14.39,1.33-32.46-.17-47.35-.08-39.81.25-79.65-2.14-119.49-1.85-7.31.05-15.12-.38-22.32,0-5.83.31-10.24,2.75-16.19,1.44-2.78-.61-6.96-3.92-8.86-4.19-5.48-.76-8.48,6.44-14.25-.92-5.15,15.25-5.56,29.5-7.43,45.35,4.2,3.14,9.85-1.4,12.34-.99.8.13,1.04,2.11,1.93,2.88,3.4,2.92,5.98,1.13,9.27,1.89,14.45,3.35,13.86,2.04,27.82,1.76,31.55-.63,62.68,1.35,94.11,1.89-.35.9-1.15,1.69-1.85,1.89ZM585.84,863c-7.51,2.73-10.73,12.98-7.73,19.88.66-5.94.17-11.57,4-16.67,1.25-1.67,3.3-1.61,3.73-3.21ZM632.19,887.1c-5.16-5.24-13.66-5.87-19.96-9.24-3.44-1.84-8.62-6.13-11.58-8.82-1.67-1.52-3.77-5.51-5.27-5.93-4.99-1.41-12.99,5.98-13.96,10.76-.43,2.13-.75,8.86.74,9.96,1.15.85,12.97,4.02,15.97,5.13,4.83,1.78,10.11,4.62,14.79,6.76,2.31,1.06,5.54,3.69,7.73,4.33,1.87.54,1.11-.42,1.37-1.3,1.7-5.81,1.98-12.42,10.17-11.65ZM65.76,895.33c3.54-7.33,3.07-19.31-5.83-22.2-6.38,9.29-16.02,15.55-25.86,20.64-3.23,1.67-8.11,2.89-11.15,4.48-2.58,1.35,1.57,2.08,2.09,2.76,2.4,3.17,2.85,6.31,3.33,10.22,10.86-8.05,23.69-15.19,37.42-15.89ZM66.33,873.22c-.92.65.5,1.27.95,1.82.92-.61-.43-1.23-.95-1.82ZM68.2,875.98v.93c.6-.31.6-.62,0-.93ZM70.51,882.47c.43-1.27-1.3-5.82-1.84-4.63l.93,4.62h.91ZM586.77,914v-16.22s-1.83-9.74-1.83-9.74v10.65s1.83,15.31,1.83,15.31ZM637.43,892.07c-2.11-1.91-5.25-2.97-7.89-1.44-5.65,3.26-2.93,13.7-5.36,14.18-11.35-5.55-23.44-12.06-35.54-15.84.7,10.69,1.13,21.29-.02,31.99-.39,3.63-.98,10.54-2.12,13.64-.89,2.41-2.85,3.96-2.83,6.79.02,2.55,4.79,15.8,6.16,18.53,2.88,5.71,12.13,12.03,5.46,18.58-3.14,3.08-8.18,1.98-8.8,7.42,6.8-.42,12.18-4.3,17.17-8.59,12.16-10.42,22.47-30.75,29.07-45.41,2.32-5.16,8.18-19.08,8.7-23.71.46-4.05-.94-13.36-4-16.14ZM60.32,899.16c-9.02,1.45-17.55,5.74-24.96,10.6-2.65,1.74-10.09,8.21-11.66,8.87-3.5,1.47,1.23-7.05,1.36-7.95,1.02-7.07-6.3-13.75-10.56-7.34-5.53,8.3,1.96,33.4,5.55,42.7,8.77,22.66,25.17,38.69,46.72,46.79-1.84-4.42-4.58-5.53-6.02-10.17-3.74-12.11,8.95-30.07,10.46-42.07-9.27-11.83-10.02-26.98-10.9-41.43ZM64.02,911.22v-4.63h-.91v4.63h.91ZM64.89,912.09l-1.24.16,1.16,9.31,1.24-.16-1.16-9.31ZM576.57,918.64c.18-3.34-6.05-4.55-8.39-4.23-5.24.72-17.55,11.8-20.85,16.24-.94,1.26-1.71,1.96-1.33,3.76,9.49-7.63,16.16-20.77,30.57-15.77ZM575.8,921.49c-1.65-2.03-9.44-.75-12.1.49-12.53,5.83-26.69,31.42-35.34,42.55-7.72,9.94-18.16,19.02-25.41,29.3-6.93,9.83-12.02,21.51-18.32,31.75-5.25,8.53-11.16,20.86-21.14,23.84,5.6,8.23,12.5,15.39,16.69,24.55,4.29,9.36,1.3,16.3,15.57,12.82,15.35-3.74,14.62-19.13,19.96-29.5,3.48-6.75,11.9-12.64,15.92-18.91,10.78-16.8,33.2-65.92,52.32-72.01,1.53-.49,3.1-.47,4.66-.44-2.66-8.73-6.5-17.08-8.82-25.95-.8-3.07-3.42-17.77-4.01-18.49ZM67.73,927.91l-.93-4.62h-.91c-.43,1.27,1.3,5.82,1.84,4.62ZM98.02,930.09c.57.33,2.03,2.98,3.55,3.37-3.18-7.84-13.35-9.08-20.86-8.32l8.39,1.33c2.58,1.33,6.58,2.25,8.91,3.62ZM79.32,926.06v.93c.6-.31.6-.62,0-.93ZM68.65,930.69c.67-1.3-.59-2.47-.91-1.85-.67,1.3.59,2.47.91,1.85ZM182.98,1052.76c-4.19-1.65-6.49-6.24-9.04-9.93-16.86-24.31-31.31-51.25-48.54-75.71-10.14-14.4-27.99-44.58-49.11-36.21l-11.34,39.66,6.97,1.47c15.11,17.99,26.77,38.84,40.11,58.47,7.64,11.23,39.65,58.58,48.65,64.55,1.29.85,2.78,1.01,4.34.69,2.74-15.48,11.02-28.93,17.97-42.98ZM102.96,935.32c.13.15,3.05,1.4,3.68,1.42l-3.23-3.25c-.79-.12-.54,1.73-.45,1.83ZM540.44,939.96c2.64.32,2.91-2.94,4.61-4.17-1.37-.66-4.89,2.87-4.61,4.17ZM107.45,937.85l-.78.67,6.44,7.52.78-.67-6.44-7.52ZM123.95,957.65l-.79.51,43.68,67.65.92-.59-43.8-67.56ZM527.92,959.45v.93c.6-.31.6-.62,0-.93ZM518.2,971.5c1.69-1.38,8.28-7.13,9.24-9.74-3-.14-9.31,7.11-9.24,9.74ZM585.2,980.13c1.69-1.83,12.96-4.15,8.05-9.06-5.72-5.72-10.24-.42-15.89,2.87.12,4.26,4.08,5.99,5.17,9.71,1.04.73,2.09-2.9,2.67-3.52ZM71.45,996.54c1.68,1.08,8-8.19,7.91-9.88-.2-3.94-13.52-19.34-16.11-11.75-3.36,9.84,8.3,13.03,8.19,21.64ZM508.92,980.77c1.07,1.1,7.55-5.48,6.96-7.4-1.28.57-8.25,6.06-6.96,7.4ZM508.91,981.71c-1.74-.4-2.2.98-3.24,1.85-7.27,6.05-12.87,17.09-15.76,25.95l19.01-27.8ZM489.45,1010.46c-2.6-.51-1.49.71-2.15,1.98-.81,1.56-2.1,3.65-2.03,5.41l4.18-7.4ZM462.31,1089.09c5.33-4.47,9.81-9.44,15.77-13.16-2.89-10.65-21.81-25.2-21.02-36.22.15-2.11,2.49-4.37,2.42-5.6-.07-1.07-2.39-2.9-2.89-4.22-2.9-7.64,10.62-11.58,10.61-12.48-2.57-3.43-3.67-2.19-6.49-.01-3.88,2.99-16.09,15.14-19,19.01-7.34,9.74,2.13,5.73,6.08,6.9,5.73,1.69,3.1,8.54,3.69,13.04,1.55,11.87,6.5,21.77,10.84,32.75ZM196.6,1086.13c1.6-10.54,2.01-24.85,7.71-34.08,1.06-1.72,5.99-6.36,6-6.81,0-.79-3.44-3.55-3.5-5.56-.07-2.21,2.92-5.93,4.57-7.43-2.64-2.33-5.93-.99-9.17-2.86-4.01-2.31-7.03-12-11.65-11.59-6.63.59,4.76,8.73,5.89,10.86,2.66,5.02-2.07,11.78-7.29,9.63,1.99,3.71,3.74,7.79,2.36,12.1-1.07,3.35-4.95,4.67-6.86,7.05-1.24,1.54-11.08,19.49-10.3,20.35,3.83.54,7.77,1.59,11.37,3.01,3.8,1.5,7.08,3.92,10.88,5.34ZM484.37,1018.82c-1.29,1.33-2.73,3.66-2.8,5.53,1.29-1.33,2.73-3.65,2.8-5.53ZM469.99,1021.56c3.42-.53,3.58,6.36,5.1,6.49,2.76.23-1.84-8.1-2.79-8.33-1.16-.27-2.59,1.46-2.31,1.83ZM191.41,1031.43c-.95-1.08-6.75-8.2-7.56-7.64-.87,5.46-10.61,8.03-5.82,13.1,3.54,3.76,4.11-3.1,7.43-4.62,2.64-1.21,4.8-.11,7.39.44.36-1.38-.95-.72-1.44-1.27ZM191,1025.3l-2.76-.48c.94,1.42,2.92,2.31,2.76.48ZM478.32,1031.78c.23-.25,1.58-5.36,2.34-6.47-.7,1.49-3.75,4.1-4.17,5.09-.7,1.62,1.43,1.82,1.83,1.38ZM168.29,1027.17c-.33,1.13,1.11,2.92,1.87,3.67.33-1.13-1.11-2.92-1.87-3.67ZM184.52,1050.33c.14.12-.12,3.82,1.85,1.85s-1.73-1.71-1.85-1.85c-.19-.23-.2-1.49-.89-2.31-4.56-5.34-8.89-10.03-12.56-16.22,3.22,5.65,6.55,13.13,11.14,17.63.75.73,2.05.69,2.31.9ZM472.42,1039.79c1.33-1.9,2.98-4.81,3.61-7.06l-8.55,11.09-6.74,2.32c1.39,1.86,1.62,1.43,3.43.69,3.49-1.43,6.31-4.25,8.26-7.04ZM469.99,1035.5c-.89-.9-9.34,5.21-7.41,7.41.96,1.09,8.46-6.34,7.41-7.41ZM183.59,1039.21c-6.74-.17,2.82,9.25,3.71,8.33.33-.34-5.14-6.19-3.71-8.33ZM447.74,1048.48l-7.41.93.93,3.7c.71.7,8.12-3.21,6.48-4.64ZM216.96,1050.35c-1.34.01-2.68-1.2-4.02-.85-4.8,1.24,3.05,7.03,4.02.85ZM213.25,1054.98l-5.55-2.79c-.61,3.37,3.54,6.9,5.55,2.79ZM448.67,1054.96c-.71-2.85-3.53-1.22-4.63.93l4.63-.93ZM443.11,1055.91l-35.72,1.88c-40.87-2.13-85.71-2.84-126.9-1.85-18.67.45-37.56.48-56.11-.96,5.3,6.83,14.06,3.56,20.98,3.15,11.79-.71,23.34.26,35.14-.33,51.98-1.08,110.44,4.06,151.95,2.24,2.38-.1,9.27-2.07,10.67-4.13Z"/>
      <path class="cls-1" d="M347.65,1109.63v2.84c-1.76-.08-5.36.14-6.38-1.46.71-.2,2.33-.48,2.68-1.37,1.23.02,2.47,0,3.71,0Z"/>
      <path class="cls-1" d="M364.33,1111.54c-4.71-.01-10.69.79-14.83-.93,4.71.01,10.69-.79,14.83.93Z"/>
      <path class="cls-1" d="M382.87,1110.62c-2.82.22-5.83.78-9.27.93,2.2-1.98,6.36-.53,9.27-.93Z"/>
      <path class="cls-1" d="M527.92,959.45c.6.31.6.62,0,.93v-.93Z"/>
      <path class="cls-1" d="M315.21,1076.3c.12-.12-.42-1.6.61-1.87,2-.53,10.12-.13,12.86-.02,2.51.1,17.09,1.37,17.82,2.11.5.51,3.22,8.42,3.92,9.98-5.13-2.8-3.49-9.45-10.77-7.51-.23,5.46,1.37,10.64,2.44,15.86-.36-.14-1.28.32-1.71-.12-.72-.73-.33-4.15-1.99-4.52-.18,3.96,1.08,4.74,2.8,6.02,1.45.14,1.12-.31.9-1.39,6.09,2.31.63,5.67-3.38,1.53-3.29-3.4-3.31-12.57-4.04-17.29l-9.27.92c0,3.13-.23,6.22.42,9.33.91,4.37,3.94,5.5,5.14,9.22-5.16,2.32-9.61-2.53-10.72-7.35-1.41-6.16,2.69-12.69-6.89-11.2-1-4.4,1.5-3.34,1.86-3.71-.97,3.61,5.24,1.05,5.98,1.83,1.1,1.16-.36,17.29,6.34,18.18-4.28-4.54-4.25-11.34-3.98-18.16l12.92-.53,1.24,10.94c.47-.47.63-1.39.67-2.52.12-2.93-.31-5.93-.25-8.85-7.67-1.18-15.16-.96-22.92-.9Z"/>
      <path class="cls-1" d="M384.72,1076.3l-.93.48c.1.84.44,1.62.93,2.3-1.54.45-4.64-1.33-4.67,1.4-.04,4.04,1.8,9.26,3.77,12.75.13.24,4.83,3.67,1.34,4.4-8.89,1.86-8.58-17.13-10.69-17.62-2.49-.59-5.84.88-8.63.44.96,3.85-.04,8.08,1.71,11.64.97,1.98,8.03,6.73,1.84,6.52-3.61-.12-2.53-.74-4.14-1.9.4.27,2.79-.18,3.71,0-3.43-2.36-5.92-12.73-4.5-17.02.71-2.14,11.91-1.89,12.38-1.41.64.66,1.08,15.22,6.03,16.57-3.57-5.54-4.57-11.11-4.05-17.61h-22.36c-.16,0-1.46,1.25-1.39,1.85,9.4-.87,5.99,1.16,7.14,8.02.23,1.38,2.62,9.31,3.06,9.61-6.46-4.67-4.63-14.83-5.57-15.76-.53-.53-7.55,1.51-6.36-3.11.47-1.82,2.35-2.29,4-2.51,5.04-.67,20-.59,25.16,0,1.35.15,1.57.71,2.23.97Z"/>
      <path class="cls-1" d="M306.86,1094.85c-.02.38,5.33,2.81,4.63,5.56-3.33,1.38-7.29-2.76-9.57-2.56-2.05.18-5.86,3.02-8.55,3.43-10.97,1.68-16.6-5.83-14.26-15.63,1.69-7.05,10.05-7.86,15.66-9.85,1.68-.59,2.6-3.92,5.12-3.21s.81,4.96.87,6.93c.09,3.11,5.13,11.39,6.1,15.32-2.85-2.57-9.1-10.71-8.35-18.54-2.54,3.09-8.42,2.38-11.29,3.65-12.26,5.44-6.66,27.23,11.6,16.88.91-.51,2.05-2.17,2.8-2.31,1.59-.3,4.55,4.73,7.08,4.02-.98-.95-1.93-2.47-1.85-3.7ZM298.99,1074.45v.93c.6-.31.6-.62,0-.93Z"/>
      <path class="cls-1" d="M241.98,1081.87c-.22-4.07.7-14.45-2.78-17.62h12.98c1,3-3.34,1.71-3.75,3.4-.7,2.91.57,8.16.05,11.44,5.49-1.36,8.02-5.89,12.78-8.51,1.41-3.59-1.28-3.37-2.6-5.4h13.9c-1.52,3.51-5.65,4.96-8.34,6.49.26-.36,4.98-4.72,4.77-5.14-5.54-.76-5.09.71-6.67,5.93.78-.6,1.47-.52,1.9-.79-.14.13-.17,1.56-.87,2.34-1.17,1.3-3.94,1.72-3.68,3.54,4.78,6.7,8.05,13.79,11.96,21.01-4.88-3.07-4.36-7.61-8.33-11.13,1.61,4.86,3.22,7.9-.75,11.83,1.64-.33,8.79.92,9.09-.7.72.45,4.21-.02,4.63,2.77-2.35.02-15.62-.16-16.68-.92-1.12-.81,2.81-3.37,3.21-4.68,1.08-3.51-4.79-15.55-7.47-15.17-.4.06-6.08,3.65-6.44,4.05-2.15,2.42-1.77,8.88-.75,11.95,1.08,3.28,3.79,2.71,4.03,5.7h-15.76c5.84-5.33,3.38-13.59,5.56-20.4,0,.62.98,2.62.94,5.06-.06,3.8-.8,10.19-2.56,13.48h8.56c-.27-1.48-2.25-2.69-2.83-4.58-1.23-3.98-.63-11.76,2.45-13.53.95-.55,1.54-.87,2.02-1.06.79-.31,2.41-1.71,2.71-1.84.66-.29,3.01-1.44,3.4-1.17.67,1.72,1.82,2.77,2.63,3.72.18.37,1.8,2.86,2.61,3.6.73-.92-.85-2.3-1.27-3.02-.26-.34-.96-1.77-1.24-2.1-.94-1.91-1.85-3.17-.74-5.05-2.05-.22-3.6,2.25-5.56,3.7-.35.26-5.88,2.75-6.48,2.79.38-5.24-1.06-13.37.87-15.74l-4.27.15c.58,1.41,1.57,11.35-1.24,15.58Z"/>
      <path class="cls-1" d="M400.48,1095.78c-7.21-6.25-3.44-16.73,4.88-19.69,2.36-.84,4.69-.62,7-1.34s5.45-3.41,7.1-3.08c1.94.39.31,4.64.39,6.03.38,6.78,8.61,14.26,12.14,19.93-3.31,1.7-8.9-2.69-10.51-2.6-1.41.08-5.15,2.86-7.79,3.31-5.56.96-9.13.99-13.22-2.56,1.65,1.03,10.16,1.16,12.43.84,3.15-.44,6.63-3.75,8.37-3.7,1.99.06,4.68,3.01,7,2.85.4-1.5-1.54-1.19-1.9-1.77-.59-.94-.17-1.42-.75-2.35-.29-.46-1.59-1.23-2.07-1.94-3.31-4.85-7.72-9.96-4.54-16.18-2.39-.37-2.36,2.13-3.86,2.57-5.55,1.63-14.97.34-16.13,10.96-.19,1.74.19,7.92,1.46,8.71Z"/>
      <path class="cls-1" d="M294.8,1063.33c.08.06-.15,1.43.62,1.87,1.55.87,3.77.55,4.94,2.29-.02,1.39-11.7,5.88-13.88,6.02l5.44-6.15c.89-1.03.73-5.67,2.88-4.03Z"/>
      <path class="cls-1" d="M384.72,1076.3c3.15,1.27,5.05,4.07,4.18,7.42-.7-1.86-3.41-3.57-4.18-4.63-.49-.68-.82-1.46-.93-2.3l.93-.48Z"/>
      <path class="cls-1" d="M515.41,991.91c.85-.54-.31-2.17,5.11-2.77,1.52-.17,8.52-.9,7.85,1.36-1.9,6.48-11.79,3.02-12.88,10.27-.21,1.42.84,7.84-1.46,6.9-4.41-1.8-5.81-11.05-2.37-14.43,1.6-1.57,3.25-1.01,3.75-1.33-3.21,1.68-5.6,8.45-2.29,11.41.15-8.75,6.08-8.67,12.48-11.88-2.08-.86-8.39-.47-10.19.47Z"/>
      <path class="cls-1" d="M534.87,1009.53c-1.2-.92-3.31-1.07-4.47-3.67l-11.28-4.2c10.17-11.97,14.05,7.61,25.01,5.09,1.06.89-3.89,6.71-7.42,5.13-.99-.44-1.36-1.99-1.84-2.35.95.86,4.77,1.51,5.56-.92-6.11-.75-10.99-12.45-17.6-7.89,4.27,1.4,7.68,3.36,11.13,6.22.75.62.74,2.43.91,2.59Z"/>
      <path class="cls-1" d="M298.99,1074.45c.6.31.6.62,0,.93v-.93Z"/>
      <path class="cls-1" d="M514.89,1029c-.6-1.25.84-3.29.16-5.6-1.01-3.41-7.81-11.55-8.71-15.54-.46-2.07,1.83-8.98-1.41-4.6-3.25,4.4-2.28,13.83,3.06,13.68-.93-2.05-3.31-3.65-2.77-6.49,1.75-.04,5.39,6.42,2.77,6.49.58,1.29,4.63,9.11,1.4,9.25-3.65.16-9.07-8.82-10.21-12.03-.2,3.77-5.21,7.62-6.01,9.75-.78,2.09,3.78,1.3,5.58,1.83,1.3.38,9.2,4.97,6.49,6.53-4.95,2.85-18.41-10.34-22.27,2.29,6.96-3.74,14.66,2.76,19.9,2.82,3.7.04,7.31-4.01,10.68-1.89-.1-.07.24-1.34-.17-1.64-2.23-1.66-5.24-.47-5.42-.68-.18-.21.47-2-.91-3.7-1.11-1.37-7.19-5.8-11.12-6.04l2.79-5.55c1.97,1.22,1.88,4.01,3.77,5.95,1.14,1.17,8.19,5.27,9.19,4.24v-5.56c3.79,1.27.19,5.19,1.34,7.4,1.31,2.53,8.83,3.87,8.84,5.11-5.83,8.19-3.4,1.89-5.31.38-.91-.72-2.72.28-3.01.08,2.58,1.62,3.28,5.92,2.77,8.81-.11.8,1.73.56,1.84.46,1.33-1.12,4.6-10.31,7.43-12.04-2.75.64-9.49-1.18-10.71-3.72ZM504.75,1009.53v-.93c.6.31.6.62,0,.93ZM487.36,1031.77c4.45-3.12,5.35-.18,9.63.88l-9.63-.88ZM504.29,1035.41c-1.55.4-3.55.4-4.86-.53-.89-.64-1.64-1.47-.55-1.3,2.46.39,4.64.65,6.32,1,.73.15.2.55-.92.83ZM506.6,1033.64c.6.31.6.62,0,.93v-.93Z"/>
      <path class="cls-1" d="M506.6,1033.64c.6.31.6.62,0,.93v-.93Z"/>
      <path class="cls-1" d="M504.75,1008.6c.6.31.6.62,0,.93v-.93Z"/>
      <path class="cls-1" d="M295.74,1095.78c-7.62,5.77-14.82-1.18-12.94-9.54.09-.39,5.36-5.44,5.73-5.58,4.97-1.94,8.57.27,10.2,5.16,1.73,5.21,1.05,6.89-3,9.96,2.87-1.76,1.47-12.01-.23-13.49-1.25-1.09-8.05.48-9.41,1.92-1.28,1.36-1.88,7.83-1.07,9.23,1.36,2.34,8.23,3.86,10.71,2.34Z"/>
      <path class="cls-1" d="M415.31,1092.99c-1.7,1.44-3.09,3.64-7.67,2.61-1.16-.26-5.48-4.01-6.11-5-4.8-7.64,11.44-19.27,16.36-7.14,2.11,5.2,1.51,6.35-2.58,9.54,3.49-2.15,1.93-12.71-4.15-13.07-10.36-.6-10.5,12.73-2.71,13.98,1.11.18,6.2-.5,6.87-.91Z"/>
      <polyline class="cls-1" points="63.65 912.24 64.89 912.09 66.05 921.4 64.81 921.55"/>
      <polyline class="cls-1" points="64.02 911.22 63.11 911.22 63.11 906.59 64.02 906.59"/>
      <polyline class="cls-1" points="106.67 938.52 107.45 937.85 113.89 945.37 113.11 946.04"/>
      <path class="cls-1" d="M191,1025.3c.16,1.82-1.81.93-2.76-.48l2.76.48Z"/>
      <line class="cls-1" x1="68.2" y1="876.91" x2="68.2" y2="875.98"/>
      <path class="cls-1" d="M79.32,926.06c.6.31.6.62,0,.93v-.93Z"/>
      <path class="cls-1" d="M165.98,1054.04c-1.15-1.55-5.76-2.97-7.86-2.84-1.49.09-6.87,2.12-5.11,3.76.64.59,10.7-6.27,11.99,2.39l.04,7.47c.45-3.59,2.65-5.99,6.21-6.44,0-2-2.99,0-4.22-.77-.64-.4-.61-2.99-1.05-3.58,2.29,2.16,8.98,1.48,8.34,4.16-.25,1.04-5.75,2.53-7.47,6.45-2.61,5.94-3.28,13-.87,19.06-7.82,1.63-5.57-5.57-7.32-8.03-.83-1.16-3.72-.28-5.46-1.02-1.29-.54-1.5-1.65-2.05-2.08,1.72,1.09,8.94.6,9.27.93s-.3,7.81,2.77,8.34c-1.1-5.39-.12-9.58.93-14.83-5.25,2.68-4.94,5.67-11.12,1.85,4.36,2.79,10.1-3.99,10.26-8.79.3-8.8-9.32-4.32-10.69-1.97-.73,1.25-.36,10.26.43,10.76-.22-.14-1.18.22-1.62-.2-1.31-1.26-1.41-5.78-1.12-7.63.08-.52,3.51-8.36-.02-5.15-2.71,2.47-2.34,14.63.91,16.69-13.54-10.27,1.35-29.3,12.42-22.16,1.62,1.04,1.75,3,2.41,3.61Z"/>
      <path class="cls-1" d="M134.47,992.83c3.08,13.65-9.56,27.6-7.43,36.49.13.53,5.52,1.59-2.24,4.29-4.23-.94-1.25-16.79,2.26-19.45-.41,5.59-3.83,10.88-2.68,16.95,2.47,3.27.94-4.17,1.32-6.09.57-2.89,2.74-7.63,3.21-10.41.35-2.08-.63-1.37-1.85-.45.07-.96.38-3.2-.46-3.7-3.83,2.9-13.62,7.17-17.23,2.39-4.55-6.01,2.73-3.15,5.98-3.4,1.19-.09,12.1-3.26,12.64-3.64-.27.23-1.74,2.29-1.14,2.78,3.33-2.15,5.6-1.24,5.76-6.49-1.22,2.03-3.68,2.9-4.62,3.71.18-.13,1.22-3.03,2.74-3.52.61-3.49,1.58-5.02.97-8.54l2.78-.93ZM124.74,1008.6v.93c.6-.31.6-.62,0-.93ZM123.35,1009.54c-3.85,1.29-7.87.67-11.55,1.12-1.3.16-2.37.32-1.09,1.65,2,2.08,11.26.88,12.64-2.77ZM129.82,1012.3c.67-1.3-.59-2.47-.91-1.85-.67,1.3.59,2.47.91,1.85Z"/>
      <path class="cls-1" d="M116.86,971.5c.24-.71.28-3.56,2.31-3.7,1.9-.14,8.45,10.44,7.88,11.12l-7.27-.78c-4.42,9.94-10.97,19.3-12.19,30.46-3.04.94-3.16-4.88-3.7-5.57.26.3,1.52,1.45,2.15,1.48l8.05-20.96c.44-.17,1.59.25,1.83-.02.35-.4.6-2.21.84-2.76.13-.29.84-1.45,1.03-2.78,1.35-.97,4.18-1.26,5.56-2.31-2.31-.65-2.56-4.9-2.78-5.11-.4-.38-2.7.76-3.7.93-.17.5.4,1.53-.67,1.83-9.33,1.62-17.61,6.68-27.13,7.45l5.09,4.65c2.53-3.22,6.64-6.27,8.81-4.66,2.21,1.64,3.35,4.78,5.13,6.78,2.59,2.9-2.31,9.92-6.99,9.92-.21.24,2.35,5.04,2.78,5.56-.08-.1-1.48.04-2.23-1.02-1.35-1.91-2.65-4.49-4.25-6.39,4.88.91,9.54-.11,9.28-5.95-.12-2.83-4.71-8.32-7.48-7.14s-3.44,7.5-5.04,7.49c-1.98-1.51-1.88-4.17-3.22-6.03-1.96-2.71-6.1-2.79-5.95-5.7,11.37.61,23.44-6.61,31.88-6.8Z"/>
      <path class="cls-1" d="M112.93,983.62c-.79.84-.17,4.48-4.42,3.65-.05-.6.14-1.42,0-1.85,2.54.57,7.18-7.5,6.48-8.35l-9.26,2.79,1.85,4.63c-.58-.66-1.89-1.54-2.21-1.85-.29-.29-2.81-3.22-1.8-3.72,1.46-.72,11.08-3.44,12.85-3.68,1.97-.26,1.7,1.36.9,2.69-.62,1.01-1.63,2.91-1.86,3.26"/>
      <path class="cls-1" d="M147.44,1029c.58.38.74,5.26.93,5.56-1.55-1.18-6.83,3.89-8.45,5.03-.92.65-2.44.37-2.67.53.17-.09.56-1.93,1.38-2.44,1.96-1.23,8.81-4.87,6.57-6.88-4.3-3.86-11.25,2.22-9.81,8.85-.1.77,1.61.6,1.86.47-.35.25-.28,3.59-2.77,2.78-2.47-5.25-.57-14.21,6.09-14.83.75-.07,6.58.73,6.87.92Z"/>
      <path class="cls-1" d="M148.37,1034.57c.31.5,3.24-.72,1.41,5.6-1.11,3.81-2.38,3.95-5.12,5.53,2.63-.71,4.4-5.55,3.71-8.18-1.31.72-8.89,6.56-8.94,7.14-.1,1.34,4.02,1.36,5.23,1.04-.24.14-.47,1.47-1.54,1.71-1.29.29-3.9-.77-5.88-.79-1.63-4.12,10.67-8.34,11.12-12.06Z"/>
      <path class="cls-1" d="M129.83,1045.7c1.98-4.07-2.51-9.13,1.64-15.36,3.95-5.91,10.35-6.44,16.67-3.45,1.28.61,1.77,4.02,5.79,1.2-.09.04-1.16,1.62-.47,1.84l2.32-.92v-.91c-.57.06-1.53-.16-1.85,0,.09-.07-.41-1.6.61-1.87,7.76-2.04-.38,6.21-.43,7.15-.26,5.17.82,11.28-5.78,15.55-6.74,4.36-10.96.45-13.4-1.04-.66-.4-6.91,5.49-6.99.13-.03-1.7,1.77-2.05,1.89-2.3-.22.32.12,2.01,0,2.78,3.09-1.23,3.91-1.87,7.41-1.85,1.69,4.28,11.87,1.16,13.88-2.57.99-1.84,1.48-10.62.96-12.53-.31-1.15-3.5-2.02-4.65-2.51-.53-.23-1.01-1.35-2.46-1.67-6.37-1.39-12.19.79-13.24,7.75-.47,3.1,1.12,8.02.81,9.12-.39,1.39-2.64,1.35-2.72,1.48Z"/>
      <path class="cls-1" d="M134.47,992.83l-2.78.93c-.46-2.64-1.47-4.17-2.38-6.44-.51-1.26-2.34-1.05.07-2.82,3.95,3.14,4.1,3.92,5.1,8.33Z"/>
      <path class="cls-1" d="M124.74,1008.6c.6.31.6.62,0,.93"/>
      <path class="cls-1" d="M209.79,80.12l47.31,15.33c.82.27,1.27,1.15,1.01,1.97l-.21-1.38c-.31.94-1.92,2.95-2.74,2.68l-45.94-14.69c-1.38-.45-1.85-1.53-1.58-2.35l.48-1.47c.27-.82,1.15-1.27,1.97-1.01l46.98,14.55c.76.42,2.04,2.94,1.77,3.76l-.9.45c-.27.82-50.11-16.84-50.11-16.84.27-.82,1.15-1.27,1.97-1.01Z"/>
      <polygon class="cls-1" points="527.57 688.95 483.04 688.95 504.57 614.01 527.57 688.95"/>
    </g>
  </g>
</svg>