<?xml version="1.0" encoding="UTF-8"?>
<svg id="Layer_2" data-name="Layer 2" xmlns="http://www.w3.org/2000/svg" viewBox="0 0 433.81 412.58">
  <defs>
    <style>
      .cls-1 {
        fill: none;
        stroke: #fff;
        stroke-miterlimit: 10;
        stroke-width: 6px;
      }

      .cls-2 {
        fill: #fff;
      }
    </style>
  </defs>
  <g id="Layer_1-2" data-name="Layer 1">
    <g>
      <polygon class="cls-1" points="282.96 3 150.85 3 43.98 80.65 3.15 206.29 43.98 331.93 150.85 409.58 282.96 409.58 389.83 331.93 430.65 206.29 389.83 80.65 282.96 3"/>
      <path class="cls-2" d="M216.9,110.72l90.72,65.91-34.65,106.64h-112.13l-34.65-106.64,90.72-65.91M216.9,103.3l-97.77,71.03,37.34,114.94h120.85l37.34-114.94-97.77-71.03h0Z"/>
      <polygon class="cls-1" points="163.17 40.92 270.64 40.92 357.57 308.49 270.64 371.66 43.03 206.29 76.23 104.09 357.57 104.09 390.78 206.29 163.17 371.66 76.23 308.49 163.17 40.92"/>
      <polygon class="cls-1" points="216.9 43.39 142.65 104.09 60.57 152.3 96.76 245.33 121.18 338 216.29 333.06 312.63 338 337.05 245.33 371.79 155.92 290.9 103.3 216.9 43.39"/>
    </g>
  </g>
</svg>